<?xml version="1.0" encoding="UTF-8" standalone="no"?>
<svg
   width="800"
   height="800"
   viewBox="0 0 32 32"
   version="1.1"
   id="svg1"
   sodipodi:docname="atec_wpsh_icon.svg"
   inkscape:version="1.4 (e7c3feb1, 2024-10-09)"
   xmlns:inkscape="http://www.inkscape.org/namespaces/inkscape"
   xmlns:sodipodi="http://sodipodi.sourceforge.net/DTD/sodipodi-0.dtd"
   xmlns="http://www.w3.org/2000/svg"
   xmlns:svg="http://www.w3.org/2000/svg">
  <defs
     id="defs1" />
  <sodipodi:namedview
     id="namedview1"
     pagecolor="#ffffff"
     bordercolor="#000000"
     borderopacity="0.25"
     inkscape:showpageshadow="2"
     inkscape:pageopacity="0.0"
     inkscape:pagecheckerboard="0"
     inkscape:deskcolor="#d1d1d1"
     inkscape:zoom="1.1875"
     inkscape:cx="399.57895"
     inkscape:cy="400"
     inkscape:window-width="1200"
     inkscape:window-height="1099"
     inkscape:window-x="0"
     inkscape:window-y="25"
     inkscape:window-maximized="0"
     inkscape:current-layer="svg1" />
  <path
     d="M16 1.151c-8.88 0-16 7.182-16 16.156 0 1.328.052 1.833.328 3.104l4.88 3.615.76 6.021h8.135l.438.302c.5.349.938.5 1.443.5.469 0 .974-.135 1.365-.417l.521-.385h8.125l.75-6.021 4.927-3.615c.276-1.271.328-1.776.328-3.104 0-8.969-7.12-16.156-16-16.156zm1.328 3.01c1.198 0 2.37.297 3.349.865l-3.286 16.729 4.563-16.078c1.411.479 2.479 1.25 3.344 2.417l.031.047-6.536 14.151L26.22 9.344l.047.036c1.01.943 1.661 2.089 1.99 3.531l-8.26 10.224 8.583-8.667.01.026c.339.75.557 1.813.557 2.661 0 .677-.031.948-.219 1.667l-4.74 3.469-.62 4.948h-5.969l-.688.526c-.266.208-.646.354-.911.354s-.646-.146-.911-.354l-.688-.526H8.427l-.589-4.813-4.839-3.557a6.634 6.634 0 0 1-.214-1.677c0-.964.214-1.99.568-2.74l.016-.031 8.604 8.734-8.307-10.328c.333-1.417 1.167-2.786 2.188-3.62l7.391 13.036L6.641 8.134c.74-1.089 1.932-1.943 3.391-2.438L14.6 21.79 11.142 5.087l.073-.042c1.083-.599 2.13-.875 3.276-.875.26 0 .38.005.703.042l.781 17.401.615-17.417c.297-.031.411-.036.74-.036z"
     id="path1"
     style="fill:#000000;fill-opacity:1" />
</svg>
