<?xml version="1.0" encoding="UTF-8" standalone="no"?>
<svg
   height="723.75"
   width="800"
   id="_x32_"
   viewBox="0 0 512 463.2"
   version="1.1"
   sodipodi:docname="atec_memory_icon.svg"
   inkscape:version="1.4 (e7c3feb1, 2024-10-09)"
   xmlns:inkscape="http://www.inkscape.org/namespaces/inkscape"
   xmlns:sodipodi="http://sodipodi.sourceforge.net/DTD/sodipodi-0.dtd"
   xmlns="http://www.w3.org/2000/svg"
   xmlns:svg="http://www.w3.org/2000/svg">
  <defs
     id="defs3" />
  <sodipodi:namedview
     id="namedview3"
     pagecolor="#ffffff"
     bordercolor="#000000"
     borderopacity="0.25"
     inkscape:showpageshadow="2"
     inkscape:pageopacity="0.0"
     inkscape:pagecheckerboard="0"
     inkscape:deskcolor="#d1d1d1"
     inkscape:zoom="0.0325"
     inkscape:cx="400"
     inkscape:cy="353.84615"
     inkscape:window-width="1248"
     inkscape:window-height="250"
     inkscape:window-x="0"
     inkscape:window-y="25"
     inkscape:window-maximized="0"
     inkscape:current-layer="_x32_" />
  <style
     id="style1">.st0{fill:#000}</style>
  <path
     class="st0"
     d="M 106.672,18.032 C 106.672,8.074 98.598,0 88.65,0 H 82.02 C 72.072,0 63.998,8.074 63.998,18.032 V 67.91 h 42.674 z m 85.331,0 C 192.003,8.074 183.929,0 173.98,0 h -6.62 c -9.94,0 -18.013,8.074 -18.013,18.032 V 67.91 h 42.657 V 18.032 Z m 85.329,0 C 277.332,8.074 269.258,0 259.31,0 h -6.62 c -9.94,0 -18.013,8.074 -18.013,18.032 V 67.91 h 42.656 V 18.032 Z m 85.34,0 C 362.672,8.074 354.598,0 344.658,0 h -6.638 c -9.94,0 -18.014,8.074 -18.014,18.032 V 67.91 h 42.666 z M 63.998,445.169 c 0,9.958 8.074,18.031 18.022,18.031 h 6.63 c 9.949,0 18.022,-8.074 18.022,-18.031 v -49.86 H 63.998 Z m 85.348,0 c 0,9.958 8.074,18.031 18.013,18.031 h 6.62 c 9.949,0 18.023,-8.074 18.023,-18.031 v -49.86 h -42.657 v 49.86 z m 85.331,0 c 0,9.958 8.074,18.031 18.013,18.031 h 6.62 c 9.948,0 18.022,-8.074 18.022,-18.031 v -49.86 h -42.656 v 49.86 z m 85.329,0 c 0,9.958 8.074,18.031 18.014,18.031 h 6.638 c 9.94,0 18.014,-8.074 18.014,-18.031 v -49.86 H 320.006 Z M 448.002,18.032 C 448.002,8.074 439.946,0 429.97,0 h -6.62 c -9.94,0 -18.013,8.074 -18.013,18.032 V 67.91 h 42.665 V 18.032 Z m -42.665,427.137 c 0,9.958 8.074,18.031 18.013,18.031 h 6.62 c 9.976,0 18.032,-8.074 18.032,-18.031 v -49.86 H 405.337 Z M 168.176,199.574 H 148.97 c -0.529,0 -0.789,0.26 -0.789,0.79 v 23.978 c 0,0.529 0.26,0.79 0.789,0.79 h 19.206 c 8.209,0 13.77,-5.033 13.77,-12.712 0,-7.813 -5.562,-12.846 -13.77,-12.846 z"
     id="path1" />
  <path
     class="st0"
     d="m 250.536,207.917 -12.056,34.969 h 24.365 l -11.913,-34.969 z"
     id="path2" />
  <path
     class="st0"
     d="M 0,94.571 V 368.647 H 512 V 94.571 Z m 198.38,181.031 h -14.712 c -1.058,0 -1.578,-0.395 -1.982,-1.328 l -17.215,-35.103 h -15.502 c -0.529,0 -0.789,0.269 -0.789,0.798 v 34.304 c 0,0.798 -0.538,1.328 -1.328,1.328 h -12.989 c -0.79,0 -1.319,-0.529 -1.319,-1.328 v -87.42 c 0,-0.799 0.529,-1.328 1.319,-1.328 h 34.842 c 16.561,0 28.742,10.998 28.742,26.895 0,11.788 -6.754,20.929 -17.08,24.768 l 18.937,36.69 c 0.53,0.926 0.001,1.724 -0.924,1.724 z m 89.906,0 h -12.99 c -0.915,0 -1.453,-0.395 -1.713,-1.328 l -5.966,-17.485 h -33.91 l -5.956,17.485 c -0.269,0.932 -0.79,1.328 -1.722,1.328 h -12.847 c -0.932,0 -1.201,-0.529 -0.932,-1.328 l 30.859,-87.42 c 0.269,-0.799 0.807,-1.328 1.722,-1.328 h 12.192 c 0.924,0 1.462,0.529 1.722,1.328 l 30.465,87.42 c 0.26,0.799 0,1.328 -0.924,1.328 z m 93.485,-1.327 c 0,0.798 -0.53,1.328 -1.328,1.328 h -11.527 c -0.79,0 -1.319,-0.529 -1.319,-1.328 v -55.099 h -0.529 l -19.072,42.388 c -0.538,1.193 -1.327,1.722 -2.52,1.722 h -7.688 c -1.184,0 -1.982,-0.529 -2.512,-1.722 l -19.071,-42.388 h -0.529 v 55.099 c 0,0.798 -0.53,1.328 -1.328,1.328 H 302.82 c -0.789,0 -1.318,-0.529 -1.318,-1.328 v -87.42 c 0,-0.799 0.529,-1.328 1.318,-1.328 h 11.788 c 1.202,0 1.867,0.404 2.261,1.328 l 24.768,55.502 h 0.529 l 24.374,-55.502 c 0.394,-0.924 1.058,-1.328 2.252,-1.328 h 11.652 c 0.798,0 1.328,0.529 1.328,1.328 v 87.42 z"
     id="path3" />
</svg>
