<?xml version="1.0" encoding="UTF-8" standalone="no"?>
<svg
   viewBox="0 0 512 512"
   version="1.1"
   id="svg1"
   sodipodi:docname="blog.svg"
   width="512"
   height="512"
   inkscape:version="1.4 (e7c3feb1, 2024-10-09)"
   xmlns:inkscape="http://www.inkscape.org/namespaces/inkscape"
   xmlns:sodipodi="http://sodipodi.sourceforge.net/DTD/sodipodi-0.dtd"
   xmlns="http://www.w3.org/2000/svg"
   xmlns:svg="http://www.w3.org/2000/svg">
  <defs
     id="defs1" />
  <sodipodi:namedview
     id="namedview1"
     pagecolor="#ffffff"
     bordercolor="#000000"
     borderopacity="0.25"
     inkscape:showpageshadow="2"
     inkscape:pageopacity="0.0"
     inkscape:pagecheckerboard="0"
     inkscape:deskcolor="#d1d1d1"
     inkscape:zoom="0.05078125"
     inkscape:cx="256"
     inkscape:cy="246.15385"
     inkscape:window-width="1248"
     inkscape:window-height="250"
     inkscape:window-x="0"
     inkscape:window-y="25"
     inkscape:window-maximized="0"
     inkscape:current-layer="svg1" />
  <path
     fill="#000000"
     d="m 192,32 c 0,17.7 14.3,32 32,32 123.7,0 224,100.3 224,224 0,17.7 14.3,32 32,32 17.7,0 32,-14.3 32,-32 C 512,128.9 383.1,0 224,0 206.3,0 192,14.3 192,32 Z m 0,96 c 0,17.7 14.3,32 32,32 70.7,0 128,57.3 128,128 0,17.7 14.3,32 32,32 17.7,0 32,-14.3 32,-32 0,-106 -86,-192 -192,-192 -17.7,0 -32,14.3 -32,32 z M 96,144 C 96,117.5 74.5,96 48,96 21.5,96 0,117.5 0,144 v 224 c 0,79.5 64.5,144 144,144 79.5,0 144,-64.5 144,-144 0,-79.5 -64.5,-144 -144,-144 h -16 v 96 h 16 c 26.5,0 48,21.5 48,48 0,26.5 -21.5,48 -48,48 -26.5,0 -48,-21.5 -48,-48 z"
     id="path1" />
</svg>
