<?xml version="1.0" encoding="UTF-8" standalone="no"?>
<svg
   viewBox="0 0 512 448"
   version="1.1"
   id="svg1"
   sodipodi:docname="box.svg"
   width="512"
   height="448"
   inkscape:version="1.4 (e7c3feb1, 2024-10-09)"
   xmlns:inkscape="http://www.inkscape.org/namespaces/inkscape"
   xmlns:sodipodi="http://sodipodi.sourceforge.net/DTD/sodipodi-0.dtd"
   xmlns="http://www.w3.org/2000/svg"
   xmlns:svg="http://www.w3.org/2000/svg">
  <defs
     id="defs1" />
  <sodipodi:namedview
     id="namedview1"
     pagecolor="#ffffff"
     bordercolor="#000000"
     borderopacity="0.25"
     inkscape:showpageshadow="2"
     inkscape:pageopacity="0.0"
     inkscape:pagecheckerboard="0"
     inkscape:deskcolor="#d1d1d1"
     inkscape:zoom="0.05078125"
     inkscape:cx="256"
     inkscape:cy="206.76923"
     inkscape:window-width="1248"
     inkscape:window-height="250"
     inkscape:window-x="0"
     inkscape:window-y="25"
     inkscape:window-maximized="0"
     inkscape:current-layer="svg1" />
  <path
     fill="#000000"
     d="m 32,0 h 448 c 17.7,0 32,14.3 32,32 v 32 c 0,17.7 -14.3,32 -32,32 H 32 C 14.3,96 0,81.7 0,64 V 32 C 0,14.3 14.3,0 32,0 Z m 0,128 h 448 v 256 c 0,35.3 -28.7,64 -64,64 H 96 C 60.7,448 32,419.3 32,384 Z m 128,80 c 0,8.8 7.2,16 16,16 h 160 c 8.8,0 16,-7.2 16,-16 0,-8.8 -7.2,-16 -16,-16 H 176 c -8.8,0 -16,7.2 -16,16 z"
     id="path1" />
</svg>
