<?xml version="1.0" encoding="UTF-8" standalone="no"?>
<svg
   viewBox="0 0 512 512"
   version="1.1"
   id="svg1"
   sodipodi:docname="info.svg"
   width="512"
   height="512"
   inkscape:version="1.4 (e7c3feb1, 2024-10-09)"
   xmlns:inkscape="http://www.inkscape.org/namespaces/inkscape"
   xmlns:sodipodi="http://sodipodi.sourceforge.net/DTD/sodipodi-0.dtd"
   xmlns="http://www.w3.org/2000/svg"
   xmlns:svg="http://www.w3.org/2000/svg">
  <defs
     id="defs1" />
  <sodipodi:namedview
     id="namedview1"
     pagecolor="#ffffff"
     bordercolor="#000000"
     borderopacity="0.25"
     inkscape:showpageshadow="2"
     inkscape:pageopacity="0.0"
     inkscape:pagecheckerboard="0"
     inkscape:deskcolor="#d1d1d1"
     inkscape:zoom="0.05078125"
     inkscape:cx="256"
     inkscape:cy="246.15385"
     inkscape:window-width="1248"
     inkscape:window-height="250"
     inkscape:window-x="0"
     inkscape:window-y="25"
     inkscape:window-maximized="0"
     inkscape:current-layer="svg1" />
  <path
     fill="#000000"
     d="m 256,512 a 256,256 0 1 0 0,-512 256,256 0 1 0 0,512 z M 216,336 h 24 v -64 h -24 c -13.3,0 -24,-10.7 -24,-24 0,-13.3 10.7,-24 24,-24 h 48 c 13.3,0 24,10.7 24,24 v 88 h 8 c 13.3,0 24,10.7 24,24 0,13.3 -10.7,24 -24,24 h -80 c -13.3,0 -24,-10.7 -24,-24 0,-13.3 10.7,-24 24,-24 z m 40,-208 a 32,32 0 1 1 0,64 32,32 0 1 1 0,-64 z"
     id="path1" />
</svg>
