<?xml version="1.0" encoding="UTF-8" standalone="no"?>
<svg
   viewBox="0 0 576 384"
   version="1.1"
   id="svg1"
   sodipodi:docname="memory.svg"
   width="576"
   height="384"
   inkscape:version="1.4 (e7c3feb1, 2024-10-09)"
   xmlns:inkscape="http://www.inkscape.org/namespaces/inkscape"
   xmlns:sodipodi="http://sodipodi.sourceforge.net/DTD/sodipodi-0.dtd"
   xmlns="http://www.w3.org/2000/svg"
   xmlns:svg="http://www.w3.org/2000/svg">
  <defs
     id="defs1" />
  <sodipodi:namedview
     id="namedview1"
     pagecolor="#ffffff"
     bordercolor="#000000"
     borderopacity="0.25"
     inkscape:showpageshadow="2"
     inkscape:pageopacity="0.0"
     inkscape:pagecheckerboard="0"
     inkscape:deskcolor="#d1d1d1"
     inkscape:zoom="0.05078125"
     inkscape:cx="295.38462"
     inkscape:cy="187.07692"
     inkscape:window-width="1248"
     inkscape:window-height="250"
     inkscape:window-x="0"
     inkscape:window-y="25"
     inkscape:window-maximized="0"
     inkscape:current-layer="svg1" />
  <path
     fill="#000000"
     d="M 64,0 C 28.7,0 0,28.7 0,64 v 7.4 C 0,78.2 4.4,84 10.1,87.7 23.3,96.3 32,111.1 32,128 32,144.9 23.3,159.7 10.1,168.3 4.4,172 0,177.8 0,184.6 V 256 H 576 V 184.6 C 576,177.8 571.6,172 565.9,168.3 552.7,159.7 544,144.9 544,128 544,111.1 552.7,96.3 565.9,87.7 571.6,84 576,78.2 576,71.4 V 64 C 576,28.7 547.3,0 512,0 Z M 576,288 H 0 v 64 c 0,17.7 14.3,32 32,32 h 48 v -32 c 0,-8.8 7.2,-16 16,-16 8.8,0 16,7.2 16,16 v 32 h 96 v -32 c 0,-8.8 7.2,-16 16,-16 8.8,0 16,7.2 16,16 v 32 h 96 v -32 c 0,-8.8 7.2,-16 16,-16 8.8,0 16,7.2 16,16 v 32 h 96 v -32 c 0,-8.8 7.2,-16 16,-16 8.8,0 16,7.2 16,16 v 32 h 48 c 17.7,0 32,-14.3 32,-32 z M 192,96 v 64 c 0,17.7 -14.3,32 -32,32 -17.7,0 -32,-14.3 -32,-32 V 96 c 0,-17.7 14.3,-32 32,-32 17.7,0 32,14.3 32,32 z m 128,0 v 64 c 0,17.7 -14.3,32 -32,32 -17.7,0 -32,-14.3 -32,-32 V 96 c 0,-17.7 14.3,-32 32,-32 17.7,0 32,14.3 32,32 z m 128,0 v 64 c 0,17.7 -14.3,32 -32,32 -17.7,0 -32,-14.3 -32,-32 V 96 c 0,-17.7 14.3,-32 32,-32 17.7,0 32,14.3 32,32 z"
     id="path1" />
</svg>
