<?xml version="1.0" encoding="UTF-8" standalone="no"?>
<svg
   viewBox="0 0 512 448"
   version="1.1"
   id="svg1"
   sodipodi:docname="server.svg"
   width="512"
   height="448"
   inkscape:version="1.4 (e7c3feb1, 2024-10-09)"
   xmlns:inkscape="http://www.inkscape.org/namespaces/inkscape"
   xmlns:sodipodi="http://sodipodi.sourceforge.net/DTD/sodipodi-0.dtd"
   xmlns="http://www.w3.org/2000/svg"
   xmlns:svg="http://www.w3.org/2000/svg">
  <defs
     id="defs1" />
  <sodipodi:namedview
     id="namedview1"
     pagecolor="#ffffff"
     bordercolor="#000000"
     borderopacity="0.25"
     inkscape:showpageshadow="2"
     inkscape:pageopacity="0.0"
     inkscape:pagecheckerboard="0"
     inkscape:deskcolor="#d1d1d1"
     inkscape:zoom="0.05078125"
     inkscape:cx="256"
     inkscape:cy="206.76923"
     inkscape:window-width="1248"
     inkscape:window-height="250"
     inkscape:window-x="0"
     inkscape:window-y="25"
     inkscape:window-maximized="0"
     inkscape:current-layer="svg1" />
  <path
     fill="#000000"
     d="M 64,0 C 28.7,0 0,28.7 0,64 v 64 c 0,35.3 28.7,64 64,64 h 384 c 35.3,0 64,-28.7 64,-64 V 64 C 512,28.7 483.3,0 448,0 Z m 280,72 a 24,24 0 1 1 0,48 24,24 0 1 1 0,-48 z m 48,24 a 24,24 0 1 1 48,0 24,24 0 1 1 -48,0 z M 64,256 C 28.7,256 0,284.7 0,320 v 64 c 0,35.3 28.7,64 64,64 h 384 c 35.3,0 64,-28.7 64,-64 v -64 c 0,-35.3 -28.7,-64 -64,-64 z m 280,72 a 24,24 0 1 1 0,48 24,24 0 1 1 0,-48 z m 56,24 a 24,24 0 1 1 48,0 24,24 0 1 1 -48,0 z"
     id="path1" />
</svg>
