<svg height="800" viewBox="0 0 32 32" width="800" xmlns="http://www.w3.org/2000/svg"><path d="m26 0h-20a2 2.286 0 0 0 -2 2.286v4.571a2 2.286 0 0 0 2 2.286h9v7.051l-2.59-2.948-1.41 1.611 5 5.714 5-5.714-1.41-1.611-2.59 2.948v-7.051h9a2 2.286 0 0 0 2-2.286v-4.571a2 2.286 0 0 0 -2-2.286zm-20 2.286h4v4.571h-4zm20 4.571h-14v-4.571h14z" stroke-width="1.06905"/><path d="m26 22.857h-20a2 2.286 0 0 0 -2 2.286v4.571a2 2.286 0 0 0 2 2.286h20a2 2.286 0 0 0 2-2.286v-4.571a2 2.286 0 0 0 -2-2.286zm-20 2.286h14v4.571h-14zm20 4.571h-4v-4.571h4z" stroke-width="1.06905"/><path d="m0 0h32v32h-32z" fill="none"/></svg>