<svg id="Layer_1" width="121.044" height="122.769" xmlns="http://www.w3.org/2000/svg"><style id="style1">.st0{fill-rule:evenodd;clip-rule:evenodd}</style><g id="g1" transform="translate(-.006)"><path id="path1" class="st0" d="M58.91 0c-6.9 0-10.42.22-16.33 4.13-8.72 5.76-14.07 15.73-16.32 29.57-.47 6.9-.77 18.82 4.05 24.38l5.63-.14 2.66-.07 4.05 4.7c.95 1.1 1.92 2.21 2.98 3.28-.75 1.12-4.12 3.98-7.11 6.51-1.32 1.12-2.58 2.19-3.55 3.06-7.59 2.95-15.01 5.97-20.76 9.59C6.172 90.05 2.11 98.45.19 107.52c-.59 7.98-.01 7.58 5.6 7.49 24.859-.24 49.78.2 74.66.23-.34-3.39-.03-6.98 1.01-10.65 2.63-9.22 9.36-17.05 17.85-21.93-5.06-2.66-10.94-5.03-16.93-7.34-.69-.62-1.47-1.29-2.26-1.99-2.52-2.2-5.35-4.69-6.5-6.11 1.8-1.58 3.32-3.39 4.82-5.2l2.54-3.06c.04-.05.23-.27.52-.6.14-.17.3-.34.46-.54h5.55C95.7 40.29 90.5 14.28 73.77 3.26 68.62-.13 64.93 0 58.91 0zM50.1 12.53c2.22 7.19 7.21 13.13 15.7 17.51 4.06 3.009 7.99 6.65 11.78 10.83.67-2.77-1.9-6.15-5.01-9.61 2.89 1.43 5.53 3.41 7.41 7.25 2.18 4.45 2.15 8.2 1.43 13.03-.21 1.4-.5 2.73-.87 4.01-.25.1-.47.24-.62.43-.34.42-.69.83-1.01 1.2-.1.12-.18.21-.53.63l-2.54 3.06c-1.94 2.33-3.9 4.66-6.38 6.36-2.37 1.62-5.28 2.69-9.27 2.68-3.67-.01-6.46-1.04-8.75-2.58-2.41-1.6-4.34-3.8-6.2-5.94L40.6 56c-.17-.2-.41-.34-.68-.43-4.58-15.9-2.35-30.52 10.18-43.04z"/></g><g id="g2" transform="translate(87.449 89.175) scale(.2734)"><path fill-rule="evenodd" clip-rule="evenodd" d="M101.589 14.7l8.818 8.819c2.321 2.321 2.321 6.118 0 8.439l-7.101 7.101a47.216 47.216 0 0 1 4.405 11.752h9.199c3.283 0 5.969 2.686 5.969 5.968V69.25c0 3.283-2.686 5.969-5.969 5.969h-10.039a47.194 47.194 0 0 1-5.204 11.418l6.512 6.51c2.321 2.323 2.321 6.12 0 8.44l-8.818 8.819c-2.321 2.32-6.119 2.32-8.439 0l-7.102-7.102a47.118 47.118 0 0 1-11.753 4.406v9.199c0 3.282-2.685 5.968-5.968 5.968h-12.47c-3.283 0-5.969-2.686-5.969-5.968V106.87a47.21 47.21 0 0 1-11.417-5.205l-6.511 6.512c-2.323 2.321-6.12 2.321-8.441 0l-8.818-8.818c-2.321-2.321-2.321-6.118 0-8.439l7.102-7.102a47.077 47.077 0 0 1-4.405-11.751H5.968C2.686 72.067 0 69.382 0 66.099V53.628c0-3.283 2.686-5.968 5.968-5.968h10.039a47.27 47.27 0 0 1 5.204-11.418l-6.511-6.51c-2.321-2.322-2.321-6.12 0-8.44l8.819-8.819c2.321-2.321 6.118-2.321 8.439 0l7.101 7.101a47.133 47.133 0 0 1 11.753-4.406V5.969C50.812 2.686 53.498 0 56.78 0h12.471c3.282 0 5.968 2.686 5.968 5.969v10.036a47.239 47.239 0 0 1 11.422 5.204l6.507-6.509c2.323-2.321 6.12-2.321 8.441 0zM61.44 36.92c13.54 0 24.519 10.98 24.519 24.519 0 13.538-10.979 24.519-24.519 24.519-13.539 0-24.519-10.98-24.519-24.519 0-13.539 10.98-24.519 24.519-24.519z" id="path1-7"/></g></svg>