<svg xmlns="http://www.w3.org/2000/svg" viewBox="0 0 99.41 122.88"><path d="M65.17 59.23l21.97 25.83c3.21 3.8 7.56 9.92 10.1 16.04 1.52 3.67 2.42 7.38 2.1 10.72-.34 3.71-2.08 6.87-5.88 8.93-1.89 1.03-4.28 1.76-7.25 2.11-.1.01-.19.02-.28.02h-72.4c-.15 0-.29-.01-.44-.04-2.93-.36-5.28-1.08-7.14-2.09-3.86-2.09-5.59-5.27-5.91-9.02-.28-3.35.67-7.1 2.25-10.81C5.01 94.58 9.64 88.2 12.9 84.34l21.21-25.12V28.65c-.07-.34-.16-.68-.25-1.01-.12-.43-.25-.85-.4-1.28-.76-2.19-1.93-4.37-3.52-6.46a2.515 2.515 0 0 1 2.01-4.03h8.39a7.033 7.033 0 0 1 3.7-13.01 7.033 7.033 0 0 1 3.7 13.01H67.5c1.39 0 2.52 1.13 2.52 2.52 0 .68-.27 1.3-.71 1.75a16.349 16.349 0 0 0-2.51 3.88c-.68 1.43-1.21 3-1.63 4.7v30.51zM55.75 74.6h16.54L60.9 61.95a2.49 2.49 0 0 1-.77-1.81v-31.7c0-.19.02-.39.07-.58.5-2.11 1.17-4.11 2.05-5.97.16-.33.32-.65.49-.97h-26.2c.66 1.25 1.22 2.53 1.67 3.83.18.53.35 1.06.49 1.59.13.47.24.93.34 1.38.07.23.1.47.1.72v31.71c0 .57-.2 1.15-.6 1.62C29.51 72.62 12.6 90.32 7.23 102.9c-3.77 7.04-.97 16.08 6.72 15.76h71.86c2.23-.28 3.96-.79 5.26-1.5 4.15-1.71 3.84-12.34 2.16-14.14-.32-.77-.67-1.53-1.04-2.3-.14.03-.3.05-.44.05H67.4c-1.27 0-2.32-1.18-2.32-2.62 0-1.44 1.04-2.62 2.32-2.62h21.84a70.077 70.077 0 0 0-3.71-5.26c-.11.02-.23.03-.34.03h-18.2c-7.07 0-6.14-5.24-1.97-5.24h16.17l-4.66-5.47a2.1 2.1 0 0 1-.96.24H55.75c-3.06.01-3.06-5.23 0-5.23zM26.03 25.71c2.67 0 4.83 2.17 4.83 4.83 0 2.67-2.17 4.83-4.83 4.83-2.67 0-4.83-2.16-4.83-4.83-.01-2.66 2.16-4.83 4.83-4.83zM22.29 0c4.73 0 8.57 3.84 8.57 8.57s-3.84 8.57-8.57 8.57-8.57-3.84-8.57-8.57S17.56 0 22.29 0z"/></svg>