<svg id="_x32_" xmlns="http://www.w3.org/2000/svg" width="800" height="800" viewBox="0 0 512 512"><style>.st0{fill:#000}</style><path class="st0" d="M336.406 166.563c-10.891 1.75-72.609 12.094-76.5 12.094H256h-3.906c-3.906 0-65.609-10.344-76.5-12.094-18.719-3.031-34.344 2.266-39.813 4.531-22.969 9.531-15.25 31.813-10.156 40.063 7.047 11.344 33.781 41.125 60.125 44.609 34.344 4.516 64-21.172 70.25-21.172 6.234 0 35.906 25.688 70.25 21.172 26.344-3.484 53.094-33.266 60.125-44.609 5.094-8.25 12.813-30.531-10.156-40.063-5.485-2.266-21.094-7.563-39.813-4.531zm-151.75 54.421c-11.094-10.734-9.25-21.516 3.688-22.391 12.969-.906 34.813 4.5 35.172 11.656.922 17.907-27.766 21.501-38.86 10.735zm142.688 0c-11.109 10.766-39.797 7.172-38.859-10.734.359-7.156 22.203-12.563 35.141-11.656 12.968.875 14.812 11.656 3.718 22.39zm75.406-105.078c0-5.031-5.219-15.094-14.578-17.125C374.656 19.156 296.563 0 256 0S137.344 19.156 123.813 98.781c-9.375 2.031-14.563 12.094-14.563 17.125v33.25h293.5v-33.25zm-46.031 266.328c0-20.203-6.281-42.297-26.234-42.297H181.5c-19.938 0-26.234 22.094-26.234 42.297 0 4.797-93.359 28.828-93.359 82.656 0 12.516 30.422 47.109 193.031 47.109h2.109c162.625 0 193.047-34.594 193.047-47.109 0-53.827-93.375-77.859-93.375-82.656z"/></svg>