<svg width="651.923" height="796.795" viewBox="0 0 19.558 23.904" xmlns="http://www.w3.org/2000/svg"><path d="M1.087 23.904A1.087 1.087 0 0 1 0 22.817v-3.26a1.087 1.087 0 0 1 2.173 0v3.26a1.087 1.087 0 0 1-1.086 1.087zm9.778-1.087v-7.605a1.087 1.087 0 0 0-2.173 0v7.605a1.087 1.087 0 0 0 2.173 0zm7.606-11.952a1.087 1.087 0 0 0-1.086 1.087v10.865a1.087 1.087 0 0 0 2.173 0V11.952a1.087 1.087 0 0 0-1.087-1.087zM18.886.084A1.077 1.077 0 0 0 18.471 0h-4.346a1.087 1.087 0 0 0 0 2.173h1.723l-6.07 6.07-3.577-3.578a1.087 1.087 0 0 0-1.536 0L.318 9.01a1.087 1.087 0 0 0 1.537 1.536l3.578-3.578 3.578 3.578a1.087 1.087 0 0 0 1.536 0l6.838-6.838v1.724a1.087 1.087 0 0 0 2.173 0V1.087a1.087 1.087 0 0 0-.672-1.003z"/></svg>