<svg data-name="Layer 1" width="120.119" height="122.88" xmlns="http://www.w3.org/2000/svg"><path d="M16.835 25.398c7.723 2.61 18.456 4.161 30.38 4.161s22.667-1.55 30.38-4.161c6.772-2.26 11.003-5.002 11.003-7.682 0-2.681-4.191-5.412-11.004-7.673-7.712-2.57-18.445-4.161-30.38-4.161-11.933 0-22.656 1.59-30.379 4.121-14.364 4.802-14.754 10.423 0 15.355zm70.122 31.18a33.1 33.1 0 0 1 23.448 9.713 33.13 33.13 0 0 1 0 46.875 33.13 33.13 0 0 1-46.875 0 33.13 33.13 0 0 1 0-46.875 33.07 33.07 0 0 1 23.437-9.713zm1.881 17.525l-2.81 14.045-2.802-4.222c-6.002 2.421-9.423 6.422-9.923 12.564-5.001-8.662-1.95-16.435 4.331-21.006l-2.86-4.302 14.004 2.901zm-4.491 32.14l2.76-14.004 2.811 4.221c6.002-2.42 9.423-6.422 9.923-12.564 5.002 8.663 2.001 16.436-4.33 21.007l2.86 4.301-14.004-2.9zm22.387-36.22a28.009 28.009 0 1 0 8.192 19.775 27.849 27.849 0 0 0-8.192-19.776zm-62.8 21.006c-11.234-.23-21.377-1.88-28.93-4.402a37.072 37.072 0 0 1-9.002-4.261v19.186c.53 2.49 4.591 5.002 10.893 7.112 7.723 2.581 18.456 4.172 30.38 4.172h3.421a43.694 43.694 0 0 0 4.321 5.691q-3.78.22-7.742.22c-12.524 0-23.928-1.71-32.24-4.481C10.653 112.796.12 107.994.12 102.262v-1.93C.06 74.113 0 43.934 0 17.716 0 12.234 5.722 7.582 15.005 4.49 23.287 1.711 34.69 0 47.215 0c12.524 0 23.927 1.71 32.24 4.491C87.768 7.272 93.38 11.414 94.3 16.265a2.93 2.93 0 0 1 .17 1v30.1a42.193 42.193 0 0 0-6.082-.64 2.77 2.77 0 0 0 .17-.93V26.627a37.012 37.012 0 0 1-9.133 4.322c-8.313 2.77-19.716 4.491-32.24 4.491-12.524 0-23.898-1.72-32.18-4.491a37.452 37.452 0 0 1-9.003-4.252v19.657c.53 2.49 4.591 5.001 10.893 7.112 7.663 2.55 18.396 4.171 30.32 4.171 4.081 0 8.002-.19 11.744-.54-.62.53-1.22 1.08-1.801 1.64-.22.18-.42.37-.62.56a43.914 43.914 0 0 0-3.551 4.002c-1.89.08-3.801.12-5.752.12-12.544.09-23.948-1.62-32.23-4.401a37.072 37.072 0 0 1-9.003-4.252v19.186c.53 2.491 4.591 5.002 10.893 7.113 7.053 2.35 16.616 3.88 27.319 4.13a42.934 42.934 0 0 0-.24 4.552v1.32z"/></svg>