<svg width="195mm" height="195mm" viewBox="0 0 195 195" xmlns="http://www.w3.org/2000/svg"><path d="M174.387 13.927h-49.028a6.964 6.964 0 1 0 0 13.928h49.028c3.684 0 6.686 3.002 6.686 6.686v35.1h-76.606a6.964 6.964 0 1 0 0 13.93h76.606v41.785H69.646V83.57a6.964 6.964 0 1 0-13.928 0v90.816A20.642 20.642 0 0 0 76.332 195h98.055A20.642 20.642 0 0 0 195 174.386V34.54a20.642 20.642 0 0 0-20.614-20.614zm6.686 160.459c0 3.684-3.002 6.685-6.686 6.685H76.332a6.7 6.7 0 0 1-6.686-6.685v-35.1h111.427z"/><path d="M76.61 76.606a6.974 6.974 0 0 0 3.113-.731l27.857-13.929a6.972 6.972 0 0 0 3.851-6.233V20.89c0-.09-.035-.167-.035-.258-.007-.195-.055-.383-.083-.578a6.846 6.846 0 0 0-.516-1.908c-.055-.118-.041-.25-.097-.369-.035-.077-.105-.118-.146-.188a6.86 6.86 0 0 0-1.498-1.908c-.111-.098-.244-.16-.362-.251-.355-.279-.703-.564-1.114-.766L79.723.736a6.964 6.964 0 0 0-6.233 0L45.634 14.665c-.411.202-.752.487-1.108.766-.118.09-.25.146-.362.25a6.706 6.707 0 0 0-1.49 1.909c-.042.07-.112.111-.146.188-.063.118-.05.25-.105.37a6.846 6.846 0 0 0-.515 1.907c-.028.195-.077.383-.084.578 0 .09-.035.168-.035.258v34.822c0 2.64 1.49 5.049 3.852 6.233l27.856 13.929a6.974 6.974 0 0 0 3.113.73zm6.964-18.233v-19.25l13.929-6.964v19.25zM76.61 14.75l12.285 6.142-12.285 6.143-12.285-6.143zm-20.892 17.41l13.928 6.965v19.25l-13.928-6.965zM27.86 6.962H6.97a6.964 6.964 0 1 0 0 13.93H27.86a6.964 6.964 0 1 0 0-13.93zm0 20.893H6.97a6.964 6.964 0 1 0 0 13.93H27.86a6.964 6.964 0 1 0 0-13.93zm0 20.894H6.97a6.964 6.964 0 1 0 0 13.928H27.86a6.964 6.964 0 1 0 0-13.928zm97.498 13.928a6.964 6.964 0 0 0 6.964-6.964V41.784a6.964 6.964 0 1 0-13.928 0v13.929a6.964 6.964 0 0 0 6.964 6.964zm27.857-6.964V41.784a6.964 6.964 0 1 0-13.928 0v13.929a6.964 6.964 0 1 0 13.928 0zm20.892 0V41.784a6.964 6.964 0 1 0-13.928 0v13.929a6.964 6.964 0 1 0 13.928 0zm-20.892 55.715V97.499a6.964 6.964 0 1 0-13.928 0v13.929a6.964 6.964 0 1 0 13.928 0zm-20.893 0V97.499a6.964 6.964 0 1 0-13.928 0v13.929a6.964 6.964 0 1 0 13.928 0zm41.785 0V97.499a6.964 6.964 0 1 0-13.928 0v13.929a6.964 6.964 0 1 0 13.928 0zm-48.749 62.679a6.964 6.964 0 0 0 6.964-6.964v-13.93a6.964 6.964 0 1 0-13.928 0v13.93a6.964 6.964 0 0 0 6.964 6.964zm20.893 0a6.964 6.964 0 0 0 6.964-6.964v-13.93a6.964 6.964 0 1 0-13.928 0v13.93a6.964 6.964 0 0 0 6.964 6.964zm20.892 0a6.964 6.964 0 0 0 6.964-6.964v-13.93a6.964 6.964 0 1 0-13.928 0v13.93a6.964 6.964 0 0 0 6.964 6.964z"/></svg>