<svg width="113.45" height="122.88" xmlns="http://www.w3.org/2000/svg"><path clip-rule="evenodd" d="M105.36 68.94a32.334 32.334 0 0 1 8.09 21.45c0 17.94-14.54 32.49-32.49 32.49-12.45 0-23.27-7.01-28.72-17.29H37.43v6.94h-22.1v-6.94H.01v-8.06h15.32v-7.01h7.02V74.65H7.24c-1.99 0-3.8-.81-5.11-2.12A7.179 7.179 0 0 1 0 67.42V41.99c0-1.77.64-3.4 1.71-4.66A7.185 7.185 0 0 1 0 32.66V7.24c0-1.99.81-3.8 2.12-5.11A7.185 7.185 0 0 1 7.24 0H98.3c1.99 0 3.8.81 5.11 2.12a7.211 7.211 0 0 1 2.12 5.11v25.43c0 1.77-.65 3.4-1.71 4.66a7.179 7.179 0 0 1 1.71 4.66v25.43c0 .52-.06 1.03-.17 1.53zm-9.62 8.25v10.75H83.72l.9-.9 3.13-3.13a10.509 10.509 0 0 0-6.66-2.38c-2.9 0-5.52 1.18-7.42 3.08a10.46 10.46 0 0 0-3.08 7.42v.01c0 10.36 16.32 13.74 19.69 3.2l.12-.36h7.29l-.13.63v.02c-.22 1.05-.55 2.09-.97 3.08-4.54 10.72-20 12.77-28.02 4.75a16.747 16.747 0 0 1-4.92-11.88v-.01c0-11.94 12.34-20.3 23.53-15.42a16.654 16.654 0 0 1 5.05 3.41l2.63-2.63.9-.9v1.26zM49.27 97.53c-.52-2.3-.79-4.69-.79-7.14 0-5.71 1.48-11.08 4.06-15.74H30.4v15.88h7.02v7.01h11.85zm-22.89-1.02c2.77 0 5.02 2.25 5.02 5.02 0 2.77-2.25 5.02-5.02 5.02-2.77 0-5.02-2.25-5.02-5.02 0-2.77 2.24-5.02 5.02-5.02zM14.17 13.03h5.35v13.85h-5.35zm73.52 37.43c2.34 0 4.24 1.9 4.24 4.24 0 2-1.38 3.67-3.24 4.12a32.719 32.719 0 0 1 11.74 5.52V41.99a2.1 2.1 0 0 0-.63-1.5c-.3-.3-.69-.51-1.12-.59-.13.01-.26.01-.38.01H7.24c-.13 0-.26 0-.38-.01-.43.08-.82.29-1.12.59-.4.38-.64.91-.64 1.5v25.43c0 .58.24 1.12.63 1.5.39.39.92.63 1.5.63H55.8c2.94-3.48 6.58-6.34 10.7-8.35 4.35-2.12 9.23-3.31 14.39-3.31 1.48 0 2.94.1 4.37.29a4.242 4.242 0 0 1 2.43-7.72zm-16.15 0c2.34 0 4.24 1.9 4.24 4.24 0 2.34-1.9 4.24-4.24 4.24-2.34 0-4.24-1.9-4.24-4.24 0-2.34 1.9-4.24 4.24-4.24zm-27.79-2.68h5.35v13.85h-5.35zm-14.79 0h5.35v13.85h-5.35zm-14.79 0h5.35v13.85h-5.35zm73.52-32.07c2.34 0 4.24 1.9 4.24 4.24 0 2.34-1.9 4.24-4.24 4.24-2.34 0-4.24-1.9-4.24-4.24 0-2.34 1.9-4.24 4.24-4.24zm-16.15 0c2.34 0 4.24 1.9 4.24 4.24 0 2.34-1.9 4.24-4.24 4.24-2.34 0-4.24-1.9-4.24-4.24 0-2.34 1.9-4.24 4.24-4.24zm-27.79-2.68h5.35v13.85h-5.35zm-14.79 0h5.35v13.85h-5.35zM6.85 34.76c.13-.01.26-.01.38-.01h91.06c.13 0 .26 0 .38.01.43-.08.82-.29 1.12-.59.39-.39.63-.92.63-1.5V7.24c0-.58-.24-1.12-.63-1.51-.39-.39-.92-.63-1.5-.63H7.24c-.58 0-1.12.24-1.51.63-.39.39-.63.92-.63 1.51v25.43c0 .58.24 1.12.63 1.5.3.3.69.51 1.12.59zm91.11 34.09c-1.93-1.5-4.06-2.76-6.34-3.72a27.677 27.677 0 0 0-10.72-2.14c-2.37 0-4.67.3-6.87.86-11.79 3.08-20.49 13.8-20.49 26.55 0 15.15 12.28 27.44 27.44 27.44 15.16 0 27.44-12.28 27.44-27.44-.02-8.74-4.1-16.52-10.46-21.55z" fill-rule="evenodd"/></svg>