<svg height="256" viewBox="0 0 32 32" width="256" xmlns="http://www.w3.org/2000/svg"><path d="M30.857 18.285v-1.143a1.143 1.143 0 1 0-2.286 0v1.143H27.43v-1.143a1.143 1.143 0 1 0-2.286 0v1.143H24v-1.143a1.143 1.143 0 1 0-2.286 0v1.143h-1.143v-1.143a1.143 1.143 0 1 0-2.285 0v1.143h-1.143v-1.143a1.143 1.143 0 1 0-2.286 0v1.143h-1.143v-1.143a1.143 1.143 0 1 0-2.285 0v1.143h-1.143v-1.143a1.143 1.143 0 1 0-2.286 0v1.143H6.857v-1.143a1.143 1.143 0 1 0-2.286 0v1.143H3.43v-1.143a1.143 1.143 0 1 0-2.286 0v1.143A1.143 1.143 0 0 0 0 19.428v9.142a1.143 1.143 0 0 0 1.143 1.143v1.143a1.143 1.143 0 1 0 2.286 0v-1.143H4.57v1.143a1.143 1.143 0 1 0 2.286 0v-1.143H8v1.143a1.143 1.143 0 1 0 2.286 0v-1.143h1.143v1.143a1.143 1.143 0 1 0 2.285 0v-1.143h1.143v1.143a1.143 1.143 0 1 0 2.286 0v-1.143h1.143v1.143a1.143 1.143 0 1 0 2.285 0v-1.143h1.143v1.143a1.143 1.143 0 1 0 2.286 0v-1.143h1.143v1.143a1.143 1.143 0 1 0 2.286 0v-1.143h1.142v1.143a1.143 1.143 0 1 0 2.286 0v-1.143A1.143 1.143 0 0 0 32 28.57v-9.142a1.143 1.143 0 0 0-1.143-1.143zM2.286 27.427v-6.856h27.428v6.856zM9.143 4.571v10.285a1.143 1.143 0 1 0 2.286 0V5.714h6.384l2.758 2.759v6.383a1.143 1.143 0 1 0 2.286 0V8a1.143 1.143 0 0 0-.335-.808l-3.428-3.429a1.143 1.143 0 0 0-.808-.335h-8a1.143 1.143 0 0 0-1.143 1.143z"/><path d="M6.857 13.714A1.143 1.143 0 0 0 8 12.57V2.286h8A1.143 1.143 0 1 0 16 0H6.857a1.143 1.143 0 0 0-1.143 1.143V12.57a1.143 1.143 0 0 0 1.143 1.143zm11.429-4.572h-4.572a1.143 1.143 0 1 0 0 2.286h4.572a1.143 1.143 0 1 0 0-2.286zm0 3.429h-4.572a1.143 1.143 0 1 0 0 2.285h4.572a1.143 1.143 0 1 0 0-2.285z"/></svg>