<svg width="792.943" height="712.885" viewBox="0 0 23.788 21.387" fill="none" xmlns="http://www.w3.org/2000/svg"><path d="M10.694 17.893H4.936c-1.344 0-2.016 0-2.53-.262a2.4 2.4 0 0 1-1.048-1.048c-.261-.514-.261-1.186-.261-2.53V4.937c0-1.344 0-2.016.261-2.53a2.4 2.4 0 0 1 1.049-1.048c.513-.261 1.185-.261 2.529-.261h13.916c1.344 0 2.016 0 2.53.261a2.4 2.4 0 0 1 1.048 1.049c.261.513.261 1.185.261 2.529v3.597M22.22 5.01l-6.067 4.044c-1.54 1.027-2.31 1.54-3.14 1.74a4.8 4.8 0 0 1-2.237 0c-.833-.2-1.602-.713-3.14-1.74L1.272 4.816m21.418 8.478h-.45c-1.228 0-2.3-.498-3.149-1.4-.849.902-1.92 1.4-3.149 1.4h-.45v1.476c0 2.657 1.53 4.89 3.6 5.522 2.069-.632 3.598-2.865 3.598-5.521z" stroke="#000" stroke-width="2.189" stroke-linecap="round" stroke-linejoin="round"/></svg>