<svg width="122.87" height="110.138" xmlns="http://www.w3.org/2000/svg"><path d="M101.77 11.108c5.82 0 11.1 2.37 14.92 6.19 3.82 3.82 6.18 9.1 6.18 14.92 0 5.83-2.36 11.1-6.18 14.92-3.82 3.82-9.1 6.18-14.92 6.18-5.83 0-11.1-2.36-14.92-6.18-3.82-3.82-6.18-9.1-6.18-14.92s2.36-11.1 6.18-14.92c3.82-3.82 9.1-6.19 14.92-6.19zm-69.38 19.36c.36.02.72 0 1.09-.08l-.14-1.08c.02-.09.02-.19.02-.29-.01-.2-.05-.4-.13-.57l-.87-6.92c.57-2.19 1.45-3.9 2.61-5.15 1.21-1.31 2.74-2.12 4.56-2.47 2.41-.17 3.13 1.59 5.54 3.12 7.32 4.68 13.51 6.26 22.55 6.37l-1.03 5.2c-.37.31-.59.78-.54 1.3.02.21.08.4.17.57l-.07.35c.12.01.23.01.35.02.3.29.73.46 1.18.42 1.47-.13 2.35-.03 2.56.4.32.65.02 2.03-.98 4.3l-4.93 8.13c-1.83 3.02-3.69 6.04-6.03 8.23-2.23 2.09-4.98 3.48-8.73 3.47-3.46-.01-6.08-1.35-8.24-3.32-2.27-2.07-4.1-4.91-5.86-7.7l-4.39-6.98-.02-.04c-1.33-1.97-2.01-3.67-2.05-4.96-.01-.41.05-.77.18-1.06.12-.25.3-.46.54-.62.48-.32 1.2-.51 2.16-.54.19-.01.35-.04.5-.1zm2.98 32.91l7.86 23.11 3.95-13.71-1.94-2.12c-.87-1.27-1.06-2.39-.58-3.35 1.05-2.08 3.22-1.69 5.25-1.69 2.13 0 4.75-.4 5.41 2.26.22.89-.06 1.82-.68 2.78l-1.94 2.12 3.95 13.71 7.12-23.11c5.13 4.62 20.33 5.55 25.98 8.7 1.79 1 3.4 2.27 4.7 3.98 1.97 2.6 3.18 6 3.51 10.32l1.18 18.69c-.29 3.05-2.02 4.81-5.43 5.07H5.43c-3.41-.26-5.14-2.02-5.43-5.07l1.18-18.69c.33-4.31 1.54-7.71 3.51-10.32 1.3-1.72 2.91-2.98 4.7-3.98 5.66-3.15 20.85-4.08 25.98-8.7zm35.3-34.92l.27-11.13c-.33-4.63-1.86-8.13-4.3-10.76-5.99-6.48-17.17-8.14-25.6-5.09-1.42.51-2.77 1.16-3.99 1.95-3.48 2.22-6.3 5.45-7.42 9.46-.27.95-.45 1.9-.54 2.84-.18 3.9-.08 8.54.19 12.28-.44.16-.84.36-1.19.6a4.48 4.48 0 0 0-1.6 1.86c-.33.71-.48 1.52-.45 2.4.05 1.84.9 4.08 2.53 6.52l4.39 6.98c1.86 2.95 3.81 5.97 6.38 8.31 2.67 2.45 5.94 4.1 10.27 4.11 4.64.01 8.03-1.7 10.78-4.28 2.64-2.47 4.61-5.67 6.55-8.86l5.01-8.24c.03-.06.06-.11.09-.17 1.4-3.18 1.69-5.41.94-6.91-.49-.95-1.26-1.56-2.31-1.87zm33.51 7.56v-1.19c0-.13.11-.25.24-.24l9 .61-9 1.07c-.13.01-.24-.12-.24-.25zm-3.56-3.13c1.4 0 2.53 1.14 2.53 2.54 0 1.4-1.13 2.53-2.53 2.53s-2.53-1.14-2.53-2.53c0-1.41 1.13-2.54 2.53-2.54zm-1.07-1.58h2.14c.13 0 .24-.11.24-.24l-1.24-9-1.38 9c0 .13.11.24.24.24zm14.23-11.11a16.919 16.919 0 0 0-12.01-4.97c-4.69 0-8.94 1.9-12.01 4.97a16.951 16.951 0 0 0-4.98 12.02c0 4.69 1.9 8.93 4.98 12.01 3.07 3.07 7.32 4.98 12.01 4.98 4.69 0 8.94-1.9 12.01-4.97 3.07-3.07 4.98-7.32 4.98-12.01 0-4.7-1.9-8.95-4.98-12.03z"/></svg>