<svg width="20" height="20" xmlns="http://www.w3.org/2000/svg"><path fill-rule="evenodd" clip-rule="evenodd" d="M10 0c5.522 0 10 4.478 10 10s-4.478 10-10 10S0 15.522 0 10 4.478 0 10 0zm0 4.716a5.27 5.27 0 0 1 1.813.32l2.327-2.328A8.343 8.343 0 0 0 10 1.616 8.342 8.342 0 0 0 5.82 2.73l2.322 2.321A5.272 5.272 0 0 1 10 4.716zm5.033 3.672a5.278 5.278 0 0 1-.086 3.47l2.323 2.322A8.347 8.347 0 0 0 18.385 10a8.348 8.348 0 0 0-.997-3.967zm-3.468 6.66a5.285 5.285 0 0 1-3.177-.015l-2.355 2.355a8.346 8.346 0 0 0 3.967.996 8.348 8.348 0 0 0 3.927-.975zm-6.53-3.236a5.285 5.285 0 0 1-.084-3.378l-2.36-2.36A8.348 8.348 0 0 0 1.616 10c0 1.505.397 2.918 1.092 4.14zM13.659 10c0 .18-.013.357-.038.53l-.012.078v.003a3.655 3.655 0 0 1-1.319 2.242l-.005.004-.053.042-.01.008a3.756 3.756 0 0 1-.45.294l-.065.035-.008.005c-.022.01-.044.022-.065.033h-.001a3.582 3.582 0 0 1-.506.207l-.006.002a1.956 1.956 0 0 1-.071.022l-.004.001a2.77 2.77 0 0 1-.074.022h-.002a3.647 3.647 0 0 1-.463.095l-.013.002-.069.01h-.013l-.07.007-.015.002-.07.005-.01.001-.074.004a3.375 3.375 0 0 1-.402-.003 3.66 3.66 0 0 1-2.682-1.438l-.005-.007a3.418 3.418 0 0 1-.044-.059l-.002-.003c-.014-.02-.03-.04-.043-.06l-.003-.004a3.712 3.712 0 0 1-.237-.392l-.004-.007-.03-.06-.006-.011-.028-.06-.007-.014-.027-.06-.005-.012-.027-.062-.005-.013-.025-.063-.001-.003a3.974 3.974 0 0 1-.099-.288l-.003-.012-.018-.065-.004-.014a1.786 1.786 0 0 1-.016-.065l-.004-.016a1.706 1.706 0 0 1-.015-.062l-.004-.02-.014-.064-.001-.008a3.687 3.687 0 0 1-.07-.709c0-.058.002-.114.004-.17a3.653 3.653 0 0 1 1.527-2.805c1.248-.806 3.002-.807 4.251-.002a3.653 3.653 0 0 1 1.527 2.747h.001a4.3 4.3 0 0 1 .006.23z" fill="#fff"/></svg>