<svg viewBox="0 0 122.88 112.43" xmlns="http://www.w3.org/2000/svg"><path clip-rule="evenodd" d="m29.96 111.88c5.94 0 10.77-4.32 10.77-9.64 0-1.9-.62-3.67-1.69-5.17h.29c-4.73-5.17-4.23-9.4.78-10.88h16.57c1.87 0 3.4-1.53 3.4-3.4v-14.71c1.16-10.04 5.45-7.06 10.5-3.95 12.2 7.51 20.31-10.28 10.45-16.37-7.74-4.78-11.09 3.44-16.76 2.59-2.19-.33-3.71-2.7-4.19-6.3v-14.54c0-1.87-1.53-3.4-3.4-3.4h-14.51c-6.87-.87-8.17-5.49-2.85-11.3h-.29c1.07-1.5 1.69-3.27 1.69-5.17.01-5.32-4.81-9.64-10.76-9.64-5.94 0-10.76 4.32-10.76 9.64 0 1.9.62 3.67 1.69 5.17h-.07c5.32 5.81 4.03 10.44-2.85 11.3h-14.57a3.41 3.41 0 0 0 -3.4 3.4v15.16c1.09 6.24 5.59 7.26 11.19 2.13v.07c1.5-1.07 3.27-1.69 5.17-1.69 5.32-0 9.64 4.82 9.64 10.76s-4.32 10.76-9.64 10.76c-1.9 0-3.67-.62-5.17-1.69v.29c-5.6-5.13-10.1-4.1-11.19 2.14v15.36c0 1.87 1.53 3.4 3.4 3.4h16.63c5.01 1.48 5.52 5.71.78 10.88h.07c-1.06 1.5-1.69 3.27-1.69 5.17.01 5.32 4.83 9.64 10.77 9.63zm62.96.55h-.02c-5.94 0-10.77-4.32-10.77-9.64 0-1.9.62-3.67 1.69-5.17h-.07c4.73-5.17 4.23-9.4-.78-10.88h-16.63a3.41 3.41 0 0 1 -3.4-3.4v-15.33c.8-2.32 1.82-3.14 3.02-3.17.55-.01 1.13.14 1.75.4 1.74.72 3.78 2.23 6 3.09 8.56 3.3 15.91-5.03 15.42-13.59-.11-1.91-.88-3.79-2.02-5.53-4.37-6.68-10.84-7.31-17.08-3.5-3.18 1.95-5.71 3.42-7.16-1.17l.08-14.49c.01-1.87 1.53-3.4 3.4-3.4h14.56c6.87-.87 8.17-5.49 2.85-11.3h.07c-1.07-1.5-1.69-3.27-1.69-5.17 0-5.32 4.82-9.64 10.77-9.64h.02c5.94 0 10.77 4.32 10.77 9.64 0 1.9-.62 3.67-1.69 5.17h.07c-5.32 5.81-4.03 10.44 2.85 11.3h14.56c1.87 0 3.4 1.53 3.4 3.4v15.16c-1.09 6.24-5.59 7.26-11.19 2.13v.07c-1.5-1.07-3.27-1.69-5.17-1.69-5.32 0-9.64 4.82-9.64 10.76s4.32 10.77 9.64 10.77c1.9 0 3.67-.62 5.17-1.69v.29c5.61-5.13 10.1-4.1 11.19 2.14v15.33c0 1.87-1.53 3.4-3.4 3.4h-16.63c-5.01 1.48-5.51 5.71-.78 10.88h-.08c1.07 1.5 1.69 3.27 1.69 5.17-.01 5.34-4.83 9.66-10.77 9.66z" fill-rule="evenodd"/></svg>