<?xml version="1.0" encoding="UTF-8" standalone="no"?>
<svg
   version="1.1"
   id="Layer_1"
   x="0px"
   y="0px"
   viewBox="0 0 122.88 122.87999"
   xml:space="preserve"
   sodipodi:docname="atec_wpbn_icon.svg"
   width="122.88"
   height="122.88"
   inkscape:version="1.4 (e7c3feb1, 2024-10-09)"
   xmlns:inkscape="http://www.inkscape.org/namespaces/inkscape"
   xmlns:sodipodi="http://sodipodi.sourceforge.net/DTD/sodipodi-0.dtd"
   xmlns="http://www.w3.org/2000/svg"
   xmlns:svg="http://www.w3.org/2000/svg"><defs
     id="defs1" /><sodipodi:namedview
     id="namedview1"
     pagecolor="#ffffff"
     bordercolor="#000000"
     borderopacity="0.25"
     inkscape:showpageshadow="2"
     inkscape:pageopacity="0.0"
     inkscape:pagecheckerboard="0"
     inkscape:deskcolor="#d1d1d1"
     inkscape:zoom="8.5937502"
     inkscape:cx="61.032726"
     inkscape:cy="62.952726"
     inkscape:window-width="1200"
     inkscape:window-height="1099"
     inkscape:window-x="0"
     inkscape:window-y="25"
     inkscape:window-maximized="0"
     inkscape:current-layer="Layer_1" /><style
     type="text/css"
     id="style1">.st0{fill-rule:evenodd;clip-rule:evenodd;}</style><g
     id="g1"
     transform="translate(0,45.001942)"
     style="fill:#000000"><path
       class="st0"
       d="M 29.7,21.41 27.12,4.89 c 25.32,-6.26 42.13,-6.78 68.66,0 l -2.72,16.52 c -25.65,-6.87 -40.67,-6 -63.36,0 z m 64.79,1.44 2.26,-12.09 c 9.16,2.02 17.5,4.9 26.13,8.38 l -17.61,1.84 c 3.02,3.4 5.78,7.1 8.28,11.07 -9.75,-3.46 -18.44,-6.03 -25.71,-7.39 l 0.5,-3.25 z M 28.39,23.11 26.13,11.02 C 16.97,13.04 8.62,15.91 0,19.4 l 17.61,1.84 c -3.02,3.4 -5.78,7.1 -8.28,11.07 9.75,-3.46 18.44,-6.03 25.71,-7.39 l -0.5,-3.25 z"
       id="path1"
       style="fill:#000000" /></g></svg>
