<svg shape-rendering="geometricPrecision" text-rendering="geometricPrecision" image-rendering="optimizeQuality" fill-rule="evenodd" clip-rule="evenodd" width="397.998" height="512.185" xmlns="http://www.w3.org/2000/svg"><path fill-rule="nonzero" d="M59.903 0h217.546a9.13 9.13 0 0 1 7.302 3.641l110.78 119.85a9.064 9.064 0 0 1 2.419 6.179h.048v322.611c0 16.401-6.783 31.385-17.651 42.253-10.87 10.87-25.855 17.651-42.254 17.651H59.903c-16.42 0-31.421-6.756-42.294-17.627C6.763 483.711 0 468.748 0 452.281V59.905C0 43.421 6.739 28.44 17.59 17.59 28.44 6.739 43.419 0 59.903 0zM18.289 339.084h361.42V147.793c-30.513 0-71.712 4.559-96.489-16.605-12.662-10.821-19.765-26.266-21.173-45.471a9.118 9.118 0 0 1-.087-1.254V18.289H59.903c-11.434 0-21.839 4.686-29.384 12.23-7.544 7.545-12.23 17.949-12.23 29.386zm361.42 18.494H18.289v94.703c0 11.413 4.705 21.802 12.25 29.347 7.567 7.566 17.985 12.268 29.364 12.268h278.19c11.354 0 21.756-4.723 29.324-12.292 7.569-7.568 12.292-17.968 12.292-29.323zm-55.468-104.531h-15.738v18.28h-24.212v-75.663h38.134c17.352 0 26.028 9.322 26.028 27.965 0 10.25-2.26 17.836-6.779 22.76-1.695 1.856-4.036 3.43-7.022 4.721-2.986 1.291-6.456 1.937-10.411 1.937zm-15.738-38.013v18.643h5.569c2.905 0 5.024-.303 6.355-.908 1.332-.605 1.998-1.997 1.998-4.176v-8.474c0-2.18-.666-3.572-1.998-4.177-1.331-.606-3.45-.908-6.355-.908zm-94.972 56.293v-75.663h39.224c7.263 0 12.449 1.413 15.556 4.237 3.107 2.825 4.661 6.941 4.661 12.348 0 5.408-.989 9.585-2.966 12.53-1.978 2.946-4.62 4.863-7.929 5.751v.726c9.765 1.695 14.648 8.353 14.648 19.975 0 6.053-1.615 10.916-4.843 14.588-3.228 3.672-8.191 5.508-14.89 5.508zm33.655-30.144h-9.442v12.348h9.321c3.39 0 5.084-2.058 5.084-6.174 0-4.116-1.654-6.174-4.963-6.174zm-1.816-28.934h-7.626v11.259h7.505c3.067 0 4.601-1.876 4.601-5.629 0-3.753-1.494-5.63-4.48-5.63zm-46.669 30.508h-24.212v9.2h29.66v19.37h-53.872v-75.663h53.266l-3.026 19.37h-26.028v10.169h24.212zm-78.871-47.093h25.302l-11.864 75.663h-31.597l-5.569-27.844H94.65l-5.448 27.844H57.605l-11.864-75.663h25.302l5.69 42.25h.726l8.716-42.25h18.523l8.595 42.25h.726zm.632 240.234c-5.206 0-9.43-4.223-9.43-9.431 0-5.207 4.224-9.43 9.43-9.43h153.267c5.207 0 9.43 4.223 9.43 9.43 0 5.208-4.223 9.431-9.43 9.431zM280.249 25.577v58.847c1.04 14.193 6.016 25.375 14.831 32.906 19.07 16.284 57.586 12.174 81.231 12.174z"/></svg>