<svg height="113.046" width="122.86" xmlns="http://www.w3.org/2000/svg"><path d="m25.16 45.038a39.86 39.86 0 0 0 15.22 26.5 39.18 39.18 0 0 0 5.12 3.35 21 21 0 0 0 3.61-5 17.87 17.87 0 0 0 1-2.56 30.92 30.92 0 1 1 26.2 1.1 38.76 38.76 0 0 1 1.57 9.11 39.8 39.8 0 0 0 12.73-7.35l23 17.8 9.25-13.22-22.37-17.23a39.89 39.89 0 1 0 -75.33-12.5zm-25.16 68v-34.9h15.14a18.3 18.3 0 0 1 6.72 1.08 8.83 8.83 0 0 1 4.1 3 7.77 7.77 0 0 1 1.39 4.62 7.31 7.31 0 0 1 -3.21 6.2 9 9 0 0 1 -3.54 1.48v.34a8.92 8.92 0 0 1 4.1 1.18 7.86 7.86 0 0 1 2.93 2.88 8.3 8.3 0 0 1 1.08 4.3 9 9 0 0 1 -1.48 5.1 10 10 0 0 1 -4.23 3.46 15.23 15.23 0 0 1 -6.56 1.26zm9.48-7.57h4.44a5.87 5.87 0 0 0 3.57-.89 3.1 3.1 0 0 0 1.2-2.65 3.71 3.71 0 0 0 -.56-2.08 3.57 3.57 0 0 0 -1.6-1.3 6.15 6.15 0 0 0 -2.48-.44h-4.57zm0-13.23h3.89a5.8 5.8 0 0 0 2.2-.39 3.37 3.37 0 0 0 1.49-1.13 3 3 0 0 0 .54-1.82 2.9 2.9 0 0 0 -1.16-2.48 4.74 4.74 0 0 0 -2.93-.87h-4v6.69zm51.71-51.71h6.49l-3.12-10.36h-.25zm8.42 6.38h-10.35l-1.81 6h-9.2l10.36-31.4h11.65l10.36 31.4h-9.19zm-32 62.64-.41-30 7.58 7.44c11.28-7.59 16.5-17.25 14.87-30.08 13.93 15.63 11.11 32.87.2 44.93l7.73 7.6-30 .11z"/></svg>