<svg fill="none" height="683.333" viewBox="0 0 21.5 20.5" width="716.667" xmlns="http://www.w3.org/2000/svg"><g stroke="#000" stroke-width="1.5" transform="translate(-1.25 -1.25)"><path d="M22 19h-8M2 19h8m2-2v-3" stroke-linecap="round"/><circle cx="12" cy="19" r="2"/><path d="M14 14H5a3 3 0 1 1 0-6h14a3 3 0 1 1 0 6h-1M12 2h7a3 3 0 1 1 0 6H5a3 3 0 0 1 0-6h3m5 3h6m-6 6h6" stroke-linecap="round"/></g><circle cx="4.75" cy="3.75" fill="#000" r="1"/><circle cx="4.75" cy="9.75" fill="#000" r="1"/></svg>