<svg height="170.833" width="170.833" xmlns="http://www.w3.org/2000/svg" xmlns:svg="http://www.w3.org/2000/svg"><svg height="89" preserveAspectRatio="xMidYMid" viewBox="0 0 96 67" width="128"><g transform="translate(.26 .217)"><svg height="66.567" width="95.481"><svg height="66.567" width="95.481"><svg height="66.567" width="95.481"><svg height="66.567" width="95.481"><svg height="66.567" width="95.481"><svg height="66.567" width="95.481"><svg fill="#fe5200" height="66.567" viewBox="6.728 25.8 86.772 60.495" width="95.481"><path d="M93.5 70.762l-9.336-15.533h-9.335l9.335 15.533-9.335 15.533h9.335z"/><path d="M70.515 70.762l-9.336 15.533h9.336l9.336-15.533-9.336-15.533h-9.336z"/><path d="M47.53 55.229l9.336 15.533-9.336 15.533h9.336l9.335-15.533-9.335-15.533z"/><path d="M44.53 84.492l8.252-13.73-8.252-13.73-3.187-5.303h25.558C64.805 37.072 52.212 25.8 36.975 25.8 20.27 25.8 6.728 39.343 6.728 56.048c0 16.705 13.542 30.247 30.247 30.247 2.398 0 4.727-.29 6.964-.819zM41.457 34.5l-.149 11.209c-4.24-.419-8.45.889-11.543 3.489L21.74 41.18c5.05-5.041 12.437-7.66 19.717-6.68M15.821 52.02a21.2 21.2 0 0 1 2.165-5.849l9.044 6.146a13.2 13.2 0 0 0-1.802 4.403 15.2 15.2 0 0 0-.275 4.107l-8.734 1.634a21.6 21.6 0 0 1-.398-10.441m11.393 23.736a21.67 21.67 0 0 1-8.92-8.445l7.305-2.959a15.3 15.3 0 0 0 4.457 6.884zm5.408 1.9a22 22 0 0 1-1.296-.315l1.64-4.074a15.2 15.2 0 0 0 4.082 1.489c2.55.531 5.081.478 7.471-.044l.385 1.919a21.57 21.57 0 0 1-12.282 1.025"/></svg></svg></svg></svg></svg></svg></svg><path d="M0 0h95.481v66.567H0z" fill="none" visibility="hidden"/></g></svg><svg height="89" preserveAspectRatio="xMidYMid" viewBox="0 0 96 67" width="128"><g transform="translate(.26 .217)"><svg height="66.567" width="95.481"><svg height="66.567" width="95.481"><svg height="66.567" width="95.481"><svg height="66.567" width="95.481"><svg height="66.567" width="95.481"><svg height="66.567" width="95.481"><svg fill="#fe5200" height="66.567" viewBox="6.728 25.8 86.772 60.495" width="95.481"><path d="M93.5 70.762l-9.336-15.533h-9.335l9.335 15.533-9.335 15.533h9.335z"/><path d="M70.515 70.762l-9.336 15.533h9.336l9.336-15.533-9.336-15.533h-9.336z"/><path d="M47.53 55.229l9.336 15.533-9.336 15.533h9.336l9.335-15.533-9.335-15.533z"/><path d="M44.53 84.492l8.252-13.73-8.252-13.73-3.187-5.303h25.558C64.805 37.072 52.212 25.8 36.975 25.8 20.27 25.8 6.728 39.343 6.728 56.048c0 16.705 13.542 30.247 30.247 30.247 2.398 0 4.727-.29 6.964-.819zM41.457 34.5l-.149 11.209c-4.24-.419-8.45.889-11.543 3.489L21.74 41.18c5.05-5.041 12.437-7.66 19.717-6.68M15.821 52.02a21.2 21.2 0 0 1 2.165-5.849l9.044 6.146a13.2 13.2 0 0 0-1.802 4.403 15.2 15.2 0 0 0-.275 4.107l-8.734 1.634a21.6 21.6 0 0 1-.398-10.441m11.393 23.736a21.67 21.67 0 0 1-8.92-8.445l7.305-2.959a15.3 15.3 0 0 0 4.457 6.884zm5.408 1.9a22 22 0 0 1-1.296-.315l1.64-4.074a15.2 15.2 0 0 0 4.082 1.489c2.55.531 5.081.478 7.471-.044l.385 1.919a21.57 21.57 0 0 1-12.282 1.025"/></svg></svg></svg></svg></svg></svg></svg><path d="M0 0h95.481v66.567H0z" fill="none" visibility="hidden"/></g></svg></svg>