<?xml version="1.0" encoding="UTF-8" standalone="no"?>
<svg
   width="424.39999"
   height="749.74097"
   viewBox="0 0 16.976 29.989639"
   version="1.1"
   id="svg1"
   sodipodi:docname="apache-icon.svg"
   inkscape:version="1.4 (e7c3feb1, 2024-10-09)"
   xmlns:inkscape="http://www.inkscape.org/namespaces/inkscape"
   xmlns:sodipodi="http://sodipodi.sourceforge.net/DTD/sodipodi-0.dtd"
   xmlns="http://www.w3.org/2000/svg"
   xmlns:svg="http://www.w3.org/2000/svg">
  <defs
     id="defs1" />
  <sodipodi:namedview
     id="namedview1"
     pagecolor="#ffffff"
     bordercolor="#000000"
     borderopacity="0.25"
     inkscape:showpageshadow="2"
     inkscape:pageopacity="0.0"
     inkscape:pagecheckerboard="0"
     inkscape:deskcolor="#d1d1d1"
     inkscape:zoom="0.0325"
     inkscape:cx="215.38462"
     inkscape:cy="353.84615"
     inkscape:window-width="1248"
     inkscape:window-height="250"
     inkscape:window-x="0"
     inkscape:window-y="25"
     inkscape:window-maximized="0"
     inkscape:current-layer="svg1" />
  <path
     d="m 2.527,17.942638 a 15.697,15.697 0 0 0 -0.289,2.058 l -0.003,0.056 c 0,0.025 -0.005,0.05 -0.006,0.075 a 4.495,4.495 0 0 0 -1.261,-1.093 l -0.021,-0.011 a 6.186,6.186 0 0 1 1.251,2.851 l 0.005,0.036 a 2.846,2.846 0 0 1 -1.442,-0.251 l 0.018,0.007 c 0.327,0.335 0.735,0.588 1.192,0.729 l 0.02,0.005 a 3.544,3.544 0 0 0 -1.685,0.84 l 0.003,-0.003 a 3.547,3.547 0 0 1 2.01,-0.361 l -0.016,-0.001 a 169.221,169.221 0 0 0 -2.303,7.11 0.674,0.674 0 0 0 0.453,-0.438 l 0.001,-0.005 c 0.137,-0.46 1.05,-3.482 2.472,-7.454 l 0.156,-0.435 c 0.15,-0.415 0.307,-0.84 0.467,-1.275 l 0.112,-0.296 v -0.005 l -1.122,-2.213 c -0.004,0.025 -0.012,0.05 -0.015,0.075 z m 1.72,0.594 c 0.197,-0.507 0.399,-1.012 0.604,-1.531 0.195,-0.492 0.4,-0.987 0.605,-1.487 q 0.951,-2.273 1.999,-4.504 l 0.256,-0.53 c 0.15,-0.304 0.296,-0.6059997 0.45,-0.9049997 a 0.156,0.156 0 0 1 0.025,-0.05 l -1.118,-2.203 -0.055,0.087 a 54.58,54.58 0 0 0 -0.771,1.302 q -0.721,1.254 -1.365,2.5489997 l -0.117,0.241 a 28.612,28.612 0 0 0 -1.508,3.641 l -0.064,0.216 a 20.596,20.596 0 0 0 -0.624,2.346 l -0.026,0.15 1.12,2.212 c 0.146,-0.396 0.3,-0.797 0.455,-1.203 z M 8.908,8.1396383 q 0.77,-1.438 1.632,-2.824 l 0.05,-0.08 c 0.28,-0.44 0.562,-0.866 0.846,-1.275 l -0.856,-1.616 -0.196,0.24 c -0.246,0.306 -0.504,0.637 -0.766,0.987 q -1.343,1.798 -2.519,3.711 l -0.028,0.047 1.116,2.203 c 0.237,-0.472 0.475,-0.94 0.719,-1.397 z M 12.762,0.13963832 A 11.116,11.116 0 0 0 10.598,2.3146383 l -0.02,0.028 0.857,1.617 a 21.373,21.373 0 0 1 1.841,-2.31 l -0.014,0.016 0.072,-0.077 a 0.84,0.84 0 0 0 -0.07,0.076 l -10e-4,0.002 c -0.598,0.69 -1.165,1.45 -1.672,2.251 l -0.046,0.077 a 32.698,32.698 0 0 0 3.53,-0.442 l -0.199,0.03 A 3.5,3.5 0 0 0 14.545,0.88863832 l 0.009,0.017 c 0,0 -0.825,-1.337 -1.794,-0.762 z M 3.827,20.556638 q -0.219,0.605 -0.444,1.24 l -0.006,0.019 -0.062,0.177 c -0.1,0.284 -0.187,0.54 -0.387,1.125 0.37,0.241 0.66,0.578 0.838,0.977 l 0.006,0.014 a 1.795,1.795 0 0 0 -0.581,-1.236 l -10e-4,-10e-4 a 3.876,3.876 0 0 0 3.729,-1.51 l 0.007,-0.01 c 0.054,-0.09 0.113,-0.199 0.165,-0.312 l 0.009,-0.023 a 1.554,1.554 0 0 1 -1.509,0.548 l 0.01,0.002 H 5.6 a 4.38,4.38 0 0 0 2.181,-1.773 l 0.011,-0.018 c 0.117,-0.191 0.232,-0.4 0.35,-0.629 a 3.52,3.52 0 0 1 -3.352,1.077 l 0.023,0.004 -0.9,0.097 q -0.044,0.114 -0.084,0.229 z m 4.529,-10.8339997 -0.096,0.2 C 8.163,10.122638 8.064,10.322638 7.965,10.532638 l -0.325,0.69 -0.165,0.359 q -0.941,2.04 -1.783,4.124 -0.306,0.744 -0.616,1.537 c -0.187,0.475 -0.371,0.956 -0.562,1.455 l -0.025,0.075 c -0.187,0.495 -0.375,1.002 -0.566,1.525 l -0.012,0.034 0.9,-0.1 a 0.305,0.305 0 0 1 -0.054,-0.008 h 0.002 a 6.415,6.415 0 0 0 3.433,-1.929 l 0.004,-0.004 a 8.645,8.645 0 0 0 1.152,-1.589 l 0.022,-0.043 c 0.246,-0.428 0.499,-0.945 0.72,-1.478 l 0.035,-0.094 c 0.21,-0.506 0.41,-1.053 0.6,-1.647 a 3.17,3.17 0 0 1 -0.82,0.29 l -0.021,0.004 a 2.364,2.364 0 0 1 -0.329,0.056 l -0.012,10e-4 a 3.945,3.945 0 0 0 2.093,-2.025 l 0.01,-0.025 c -0.345,0.242 -0.75,0.426 -1.186,0.53 l -0.024,0.005 a 3.65,3.65 0 0 1 -0.217,0.037 l -0.054,0.008 h 0.003 c 0.343,-0.141 0.638,-0.31 0.908,-0.511 l -0.011,0.008 c 0.317,-0.24 0.581,-0.53 0.788,-0.859 l 0.008,-0.013 0.079,-0.13 0.096,-0.192 c 0.146,-0.282 0.301,-0.6319997 0.436,-0.9919997 l 0.023,-0.07 0.038,-0.11 c 0.059,-0.161 0.112,-0.355 0.15,-0.555 l 0.004,-0.024 a 0.945,0.945 0 0 1 -0.113,0.079 l -0.004,0.002 c -0.36,0.193 -0.777,0.34 -1.218,0.421 l -0.026,0.004 -0.001,-0.001 h -0.021 l -0.125,0.021 0.021,-0.01 -2.83,0.312 -0.016,0.027 z m 3.191,-5.728 c -0.255,0.387 -0.53,0.825 -0.825,1.325 l -0.05,0.077 q -0.832,1.407 -1.581,2.862 -0.351,0.675 -0.721,1.432 l 2.833,-0.312 a 3.454,3.454 0 0 0 1.545,-1.209 l 0.007,-0.011 q 0.147,-0.212 0.287,-0.427 c 0.287,-0.454 0.575,-0.953 0.829,-1.45 0.246,-0.482 0.462,-0.958 0.631,-1.387 0.104,-0.275 0.187,-0.527 0.247,-0.75 0.052,-0.197 0.092,-0.384 0.125,-0.562 -0.924,0.174 -2.066,0.32 -3.226,0.406 l -0.108,0.006 z m 5.32,-1.249 -0.219,0.441 -0.215,-0.441 h -0.109 v 0.632 h 0.084 v -0.504 l 0.215,0.437 h 0.056 l 0.215,-0.437 v 0.505 h 0.082 v -0.632 z m -1.125,0 v 0.082 h 0.195 v 0.55 h 0.09 v -0.55 h 0.195 v -0.082 z"
     id="path1" />
</svg>
