<?xml version="1.0" encoding="UTF-8" standalone="no"?>
<svg
   width="680.00861"
   height="800.01123"
   viewBox="-1.5 0 17.000215 20.000281"
   version="1.1"
   id="svg1"
   sodipodi:docname="apple-icon.svg"
   inkscape:version="1.4 (e7c3feb1, 2024-10-09)"
   xmlns:inkscape="http://www.inkscape.org/namespaces/inkscape"
   xmlns:sodipodi="http://sodipodi.sourceforge.net/DTD/sodipodi-0.dtd"
   xmlns="http://www.w3.org/2000/svg"
   xmlns:svg="http://www.w3.org/2000/svg">
  <defs
     id="defs1" />
  <sodipodi:namedview
     id="namedview1"
     pagecolor="#ffffff"
     bordercolor="#000000"
     borderopacity="0.25"
     inkscape:showpageshadow="2"
     inkscape:pageopacity="0.0"
     inkscape:pagecheckerboard="0"
     inkscape:deskcolor="#d1d1d1"
     inkscape:zoom="0.0325"
     inkscape:cx="338.46154"
     inkscape:cy="384.61538"
     inkscape:window-width="1248"
     inkscape:window-height="250"
     inkscape:window-x="0"
     inkscape:window-y="25"
     inkscape:window-maximized="0"
     inkscape:current-layer="svg1" />
  <path
     d="m 10.070215,3.193 c 0.73,-0.845 1.221,-2.022 1.087,-3.193 -1.05,0.04 -2.3219998,0.671 -3.0749998,1.515 -0.677,0.749 -1.267,1.946 -1.108,3.094 1.172,0.087 2.368,-0.57 3.0969998,-1.416 m 2.628,7.432 c 0.03,3.027 2.77,4.034 2.801,4.047 -0.022,0.07 -0.438,1.435 -1.444,2.845 -0.87,1.218 -1.774,2.43 -3.196,2.457 -1.3979998,0.025 -1.8479998,-0.794 -3.4469998,-0.794 -1.597,0 -2.097,0.768 -3.42,0.819 -1.373,0.049 -2.42,-1.318 -3.29599993,-2.532 -1.79400007,-2.483 -3.16400007,-7.017 -1.324,-10.077 0.915,-1.52 2.54799993,-2.482 4.32099993,-2.506 1.348,-0.025 2.621,0.869 3.445,0.869 0.825,0 2.372,-1.075 3.9979998,-0.917 0.68,0.027 2.591,0.263 3.818,1.984 -0.1,0.059 -2.28,1.275 -2.256,3.805"
     fill-rule="evenodd"
     id="path1" />
</svg>
