<?xml version="1.0" encoding="UTF-8" standalone="no"?>
<svg
   width="800"
   height="667.03107"
   viewBox="0 0 24 20.010932"
   version="1.1"
   id="svg1"
   sodipodi:docname="curl-icon.svg"
   inkscape:version="1.4 (e7c3feb1, 2024-10-09)"
   xmlns:inkscape="http://www.inkscape.org/namespaces/inkscape"
   xmlns:sodipodi="http://sodipodi.sourceforge.net/DTD/sodipodi-0.dtd"
   xmlns="http://www.w3.org/2000/svg"
   xmlns:svg="http://www.w3.org/2000/svg">
  <defs
     id="defs1" />
  <sodipodi:namedview
     id="namedview1"
     pagecolor="#ffffff"
     bordercolor="#000000"
     borderopacity="0.25"
     inkscape:showpageshadow="2"
     inkscape:pageopacity="0.0"
     inkscape:pagecheckerboard="0"
     inkscape:deskcolor="#d1d1d1"
     inkscape:zoom="0.0325"
     inkscape:cx="400"
     inkscape:cy="323.07692"
     inkscape:window-width="1248"
     inkscape:window-height="250"
     inkscape:window-x="0"
     inkscape:window-y="25"
     inkscape:window-maximized="0"
     inkscape:current-layer="svg1" />
  <path
     d="m 0.803,12.843 a 0.9665,0.9665 0 1 1 1.933,0 0.9665,0.9665 0 0 1 -1.933,0 m 2.736,0 C 3.539,12.647 3.486,12.467 3.427,12.29 3.193,11.588 2.551,11.074 1.77,11.074 1.645,11.074 1.535,11.12 1.417,11.144 0.615,11.312 0,11.991 0,12.843 a 1.77,1.77 0 0 0 3.539,0 M 1.769,5.694 a 0.967,0.967 0 1 1 0,1.934 0.967,0.967 0 0 1 0,-1.934 m 0,2.736 A 1.77,1.77 0 0 0 3.539,6.66 C 3.539,6.465 3.486,6.284 3.427,6.108 3.193,5.406 2.55,4.891 1.77,4.891 1.645,4.891 1.535,4.938 1.417,4.963 0.615,5.13 0,5.808 0,6.66 0,7.637 0.792,8.43 1.77,8.43 M 14.99,2.736 a 0.966,0.966 0 0 1 -0.966,-0.967 0.966,0.966 0 0 1 0.967,-0.966 0.9665,0.9665 0 1 1 0,1.933 m -9.6,16.513 a 0.967,0.967 0 0 1 0,-1.933 0.966,0.966 0 0 1 0.966,0.967 0.966,0.966 0 0 1 -0.966,0.966 M 14.991,0 a 1.77,1.77 0 0 0 -1.77,1.77 c 0,0.208 0.053,0.402 0.119,0.588 L 5.039,16.584 C 4.236,16.752 3.621,17.43 3.621,18.283 a 1.77,1.77 0 0 0 3.539,0 A 1.74,1.74 0 0 0 7.049,17.73 L 15.392,3.457 C 16.17,3.271 16.76,2.604 16.76,1.769 A 1.77,1.77 0 0 0 14.99,0 m 7.24,2.736 a 0.966,0.966 0 0 1 -0.966,-0.967 0.966,0.966 0 0 1 0.967,-0.966 0.9665,0.9665 0 1 1 0,1.933 m -9.6,16.513 a 0.966,0.966 0 0 1 -0.966,-0.967 0.966,0.966 0 0 1 0.966,-0.966 0.9665,0.9665 0 0 1 0,1.933 M 22.231,0 a 1.77,1.77 0 0 0 -1.77,1.77 c 0,0.208 0.053,0.402 0.119,0.588 l -8.301,14.226 c -0.802,0.168 -1.417,0.846 -1.417,1.699 a 1.77,1.77 0 0 0 3.538,0 c 0,-0.197 -0.053,-0.376 -0.111,-0.553 L 22.632,3.457 C 23.409,3.271 24,2.604 24,1.769 A 1.77,1.77 0 0 0 22.23,0"
     id="path1" />
</svg>
