<?xml version="1.0" encoding="UTF-8" standalone="no"?>
<svg
   width="600"
   height="600"
   version="1.1"
   id="svg1"
   sodipodi:docname="database-icon.svg"
   inkscape:version="1.4 (e7c3feb1, 2024-10-09)"
   xmlns:inkscape="http://www.inkscape.org/namespaces/inkscape"
   xmlns:sodipodi="http://sodipodi.sourceforge.net/DTD/sodipodi-0.dtd"
   xmlns="http://www.w3.org/2000/svg"
   xmlns:svg="http://www.w3.org/2000/svg">
  <defs
     id="defs1" />
  <sodipodi:namedview
     id="namedview1"
     pagecolor="#ffffff"
     bordercolor="#000000"
     borderopacity="0.25"
     inkscape:showpageshadow="2"
     inkscape:pageopacity="0.0"
     inkscape:pagecheckerboard="0"
     inkscape:deskcolor="#d1d1d1"
     inkscape:zoom="0.043333333"
     inkscape:cx="300"
     inkscape:cy="288.46154"
     inkscape:window-width="1248"
     inkscape:window-height="250"
     inkscape:window-x="0"
     inkscape:window-y="25"
     inkscape:window-maximized="0"
     inkscape:current-layer="svg1" />
  <path
     style="-inkscape-stroke:none"
     d="M 300,0 C 221.302,0 150.098,8.011 97.068,21.535 70.553,28.297 48.606,36.278 31.678,46.485 16.58,55.586 3.245,67.928 0.53,85 H 0 v 5 c 0,5.16 3.64,12.943 17.031,22.838 13.392,9.894 35.088,20.167 62.66,28.783 C 134.835,158.854 213.324,170 300,170 c 86.676,0 165.165,-11.146 220.309,-28.379 27.572,-8.616 49.268,-18.889 62.66,-28.783 C 596.36,102.943 600,95.16 600,90 h -0.127 C 599.195,70.319 584.847,56.448 568.323,46.484 551.394,36.278 529.447,28.297 502.932,21.535 449.902,8.011 378.698,0 300,0 Z M 0,149.68 v 84.427 c 0.705,5.113 4.66,12.197 16.723,21.11 13.392,9.893 35.087,20.167 62.66,28.783 55.144,17.233 133.632,28.379 220.308,28.379 86.677,0 165.165,-11.146 220.309,-28.379 27.572,-8.616 49.268,-18.889 62.66,-28.783 13.392,-9.895 17.031,-17.678 17.031,-22.838 H 600 v -82.7 c -18.067,11.894 -40.872,21.72 -67.76,30.122 C 471.568,198.76 390.054,210 300,210 209.946,210 128.432,198.761 67.76,179.8 40.872,171.399 18.067,161.574 0,149.68 Z m 600,142.117 c -9.749,6.455 -20.818,12.332 -33.25,17.672 -10.68,4.587 -22.31,8.802 -34.818,12.71 -60.673,18.96 -142.187,30.2 -232.24,30.2 -90.055,0 -171.568,-11.24 -232.24,-30.2 C 40.72,313.827 18.016,304.072 0,292.272 V 380 c 0,5.16 3.64,12.943 17.031,22.838 13.392,9.894 35.088,20.167 62.66,28.783 C 134.835,448.854 213.324,460 300,460 c 86.676,0 165.165,-11.146 220.309,-28.379 27.572,-8.616 49.268,-18.889 62.66,-28.783 C 596.36,392.943 600,385.16 600,380 Z M 0,439.68 V 515 h 0.531 c 2.714,17.071 16.049,29.413 31.147,38.516 16.928,10.206 38.875,18.187 65.39,24.949 C 150.098,591.989 221.302,600 300,600 c 78.698,0 149.901,-8.011 202.932,-21.535 26.515,-6.762 48.462,-14.743 65.39,-24.95 15.098,-9.102 28.433,-21.444 31.147,-38.515 H 600 V 439.68 C 581.933,451.573 559.128,461.398 532.24,469.8 471.567,488.762 390.054,500 300,500 209.946,500 128.433,488.761 67.76,469.8 40.872,461.399 18.067,451.574 0,439.68 Z"
     color="#000000"
     fill="#010101"
     paint-order="stroke fill markers"
     id="path1" />
</svg>
