<?xml version="1.0" encoding="UTF-8" standalone="no"?>
<svg
   width="617.50055"
   height="749.87384"
   viewBox="0 0 24.700022 29.994954"
   version="1.1"
   id="svg1"
   sodipodi:docname="linux-icon.svg"
   inkscape:version="1.4 (e7c3feb1, 2024-10-09)"
   xmlns:inkscape="http://www.inkscape.org/namespaces/inkscape"
   xmlns:sodipodi="http://sodipodi.sourceforge.net/DTD/sodipodi-0.dtd"
   xmlns="http://www.w3.org/2000/svg"
   xmlns:svg="http://www.w3.org/2000/svg">
  <defs
     id="defs1" />
  <sodipodi:namedview
     id="namedview1"
     pagecolor="#ffffff"
     bordercolor="#000000"
     borderopacity="0.25"
     inkscape:showpageshadow="2"
     inkscape:pageopacity="0.0"
     inkscape:pagecheckerboard="0"
     inkscape:deskcolor="#d1d1d1"
     inkscape:zoom="0.0325"
     inkscape:cx="307.69231"
     inkscape:cy="353.84615"
     inkscape:window-width="1248"
     inkscape:window-height="250"
     inkscape:window-x="0"
     inkscape:window-y="25"
     inkscape:window-maximized="0"
     inkscape:current-layer="svg1" />
  <path
     d="m 11.272022,7.076 c -0.025,0.072 -0.141,0.061 -0.207,0.082 -0.059,0.031 -0.107,0.085 -0.175,0.085 -0.062,0 -0.162,-0.025 -0.17,-0.085 -0.012,-0.082 0.11,-0.166 0.187,-0.166 a 0.391,0.391 0 0 1 0.326,-0.005 l -0.003,-0.001 a 0.06,0.06 0 0 1 0.038,0.055 l -10e-4,0.008 v 0.025 h 0.004 z m 0.688,0 V 7.049 c -0.008,-0.025 0.016,-0.052 0.036,-0.062 a 0.396,0.396 0 0 1 0.327,0.006 l -0.002,-0.001 c 0.079,0 0.2,0.084 0.187,0.169 -0.007,0.061 -0.106,0.082 -0.169,0.082 -0.069,0 -0.115,-0.054 -0.176,-0.085 -0.065,-0.023 -0.182,-0.01 -0.204,-0.081 z m 1.352,1.978 a 4.608,4.608 0 0 1 -1.835,0.666 l -0.024,0.003 a 2.933,2.933 0 0 1 -1.607,-0.588 l 0.007,0.005 c -0.192,-0.167 -0.35,-0.335 -0.466,-0.419 -0.205,-0.167 -0.18,-0.416 -0.092,-0.416 0.136,0.02 0.161,0.167 0.249,0.25 0.12,0.082 0.269,0.25 0.45,0.416 0.397,0.328 0.899,0.541 1.45,0.583 l 0.009,10e-4 a 3.915,3.915 0 0 0 1.763,-0.592 l -0.016,0.01 c 0.244,-0.169 0.556,-0.417 0.81,-0.584 0.195,-0.17 0.186,-0.334 0.349,-0.334 0.16,0.02 0.043,0.167 -0.184,0.415 a 9.973,9.973 0 0 1 -0.818,0.56 l -0.044,0.025 z m -8.946,11.339 h 0.012 c 0.069,0 0.137,0.007 0.203,0.019 l -0.007,-10e-4 c 0.544,0.14 0.992,0.478 1.273,0.931 l 0.005,0.009 1.137,2.079 0.004,0.004 c 0.457,0.773 0.948,1.442 1.497,2.059 l -0.011,-0.013 c 0.49,0.52 0.82,1.196 0.909,1.946 l 0.002,0.016 v 0.008 a 1.662,1.662 0 0 1 -1.396,1.616 l -0.009,0.001 a 4.594,4.594 0 0 1 -3.014,-0.592 l 0.021,0.012 a 10.049,10.049 0 0 0 -3.555,-0.752 h -0.015 A 1.214,1.214 0 0 1 0.52102196,27.239 l -0.002,-0.003 a 2.016,2.016 0 0 1 0.159,-1.548 l -0.005,0.011 v -0.005 l 0.003,-0.004 a 3.031,3.031 0 0 0 -0.039,-1.418 l 0.005,0.021 a 1.956,1.956 0 0 1 0.058,-1.189 l -0.004,0.014 c 0.2,-0.417 0.49500004,-0.5 0.86200004,-0.666 a 3.51,3.51 0 0 0 1.151,-0.593 l -0.008,0.006 h 0.002 v -0.003 c 0.32,-0.335 0.556,-0.751 0.835,-1.047 0.195,-0.249 0.492,-0.41 0.827,-0.42 h 0.002 z m 13.514,-0.061 -0.001,0.059 c 0,0.743 0.449,1.381 1.091,1.658 l 0.012,0.005 a 2.72,2.72 0 0 0 2.235,-0.952 l 0.003,-0.004 0.264,-0.012 a 1.29,1.29 0 0 1 1.059,0.336 l -0.001,-0.001 0.004,0.004 c 0.249,0.301 0.422,0.673 0.487,1.082 l 0.002,0.013 c 0.055,0.505 0.238,0.96 0.517,1.34 l -0.005,-0.008 c 0.416,0.356 0.705,0.85 0.793,1.411 l 0.002,0.013 0.004,-0.009 v 0.022 l -0.004,-0.015 c -0.019,0.327 -0.231,0.495 -0.622,0.744 a 10.428,10.428 0 0 0 -3.077,1.968 l 0.007,-0.006 a 3.875,3.875 0 0 1 -2.523,1.486 l -0.021,0.002 a 1.872,1.872 0 0 1 -1.963,-1.11 l -0.005,-0.012 -0.006,-0.004 a 3.126,3.126 0 0 1 -0.146,-0.956 c 0,-0.416 0.079,-0.813 0.224,-1.178 l -0.008,0.022 c 0.234,-0.668 0.435,-1.466 0.568,-2.288 l 0.011,-0.083 c 0.016,-0.812 0.104,-1.593 0.258,-2.35 l -0.014,0.083 a 1.81,1.81 0 0 1 0.794,-1.225 l 0.007,-0.004 0.056,-0.027 z m -2.731,-11.194 a 29.697,29.697 0 0 0 2.247,5.757 l -0.079,-0.167 a 12.82,12.82 0 0 1 1.363,3.695 l 0.014,0.084 h 0.031 c 0.217,0 0.427,0.029 0.627,0.084 l -0.017,-0.004 a 4.97,4.97 0 0 0 0.173,-1.316 5.07,5.07 0 0 0 -1.533,-3.639 l -10e-4,-10e-4 c -0.275,-0.25 -0.29,-0.419 -0.154,-0.419 a 7.246,7.246 0 0 1 2.045,3.394 l 0.012,0.051 a 4.395,4.395 0 0 1 0.021,2.117 l 0.006,-0.03 c 0.074,0.038 0.16,0.067 0.251,0.083 l 0.006,10e-4 c 1.29,0.667 1.766,1.172 1.537,1.921 v -0.054 c -0.075,-0.004 -0.15,0 -0.225,0 h -0.02 c 0.189,-0.584 -0.227,-1.031 -1.331,-1.53 -1.143,-0.5 -2.057,-0.42 -2.212,0.581 a 0.999,0.999 0 0 0 -0.022,0.165 v 0.003 c -0.073,0.03 -0.16,0.058 -0.25,0.078 l -0.011,0.002 c -0.508,0.336 -0.87,0.859 -0.989,1.469 l -0.002,0.014 c -0.148,0.695 -0.241,1.5 -0.256,2.323 v 0.016 a 9.39,9.39 0 0 1 -0.418,1.753 l 0.02,-0.066 a 5.725,5.725 0 0 1 -3.634,1.29 5.732,5.732 0 0 1 -3.073,-0.887 l 0.024,0.014 a 3.333,3.333 0 0 0 -0.503,-0.667 l 10e-4,0.001 a 1.83,1.83 0 0 0 -0.342,-0.415 l -0.002,-10e-4 c 0.207,0 0.407,-0.031 0.596,-0.088 l -0.015,0.004 a 0.779,0.779 0 0 0 0.391,-0.412 l 0.002,-0.005 a 1.648,1.648 0 0 0 -0.432,-1.454 l 10e-4,0.001 a 7.992,7.992 0 0 0 -2.196,-1.88 l -0.038,-0.02 a 3.196,3.196 0 0 1 -1.43,-1.722 l -0.007,-0.022 a 3.954,3.954 0 0 1 -0.013,-2.083 l -0.006,0.027 a 12.157,12.157 0 0 1 1.62,-3.496 l -0.028,0.043 c 0.134,-0.081 0.046,0.169 -0.51,1.217 a 4.575,4.575 0 0 0 -0.757,2.533 c 0,0.84 0.224,1.627 0.616,2.306 l -0.012,-0.022 c 0.052,-1.309 0.345,-2.537 0.834,-3.659 l -0.025,0.065 a 21.101,21.101 0 0 0 2.275,-6.452 l 0.02,-0.131 c 0.06,0.045 0.271,0.169 0.361,0.252 0.272,0.166 0.475,0.416 0.737,0.581 0.267,0.26 0.633,0.42 1.035,0.42 l 0.063,-10e-4 h -0.003 c 0.049,0.004 0.094,0.008 0.137,0.008 a 2.657,2.657 0 0 0 1.259,-0.342 l -0.013,0.007 c 0.362,-0.167 0.65,-0.417 0.925,-0.5 h 0.006 a 2.423,2.423 0 0 0 1.3,-0.869 l 0.004,-0.006 z m -3.499,-2.677 h 0.009 c 0.569,0 1.094,0.187 1.517,0.503 l -0.007,-0.005 c 0.378,0.234 0.814,0.433 1.275,0.574 l 0.04,0.01 h 0.004 c 0.246,0.11 0.449,0.281 0.594,0.494 l 0.003,0.005 V 7.878 a 0.71,0.71 0 0 1 0.019,0.592 l 0.002,-0.005 a 2.237,2.237 0 0 1 -1.313,1.048 l -0.016,0.004 v 0.002 c -0.335,0.169 -0.626,0.416 -0.968,0.581 -0.35,0.21 -0.771,0.334 -1.222,0.334 h -0.045 0.002 a 1.407,1.407 0 0 1 -0.57,-0.087 l 0.01,0.003 a 4.53,4.53 0 0 1 -0.417,-0.257 l 0.014,0.01 a 7.16,7.16 0 0 0 -0.739,-0.565 l -0.026,-0.016 V 9.516 h -0.006 a 1.97,1.97 0 0 1 -0.852,-0.876 l -0.005,-0.012 a 0.626,0.626 0 0 1 0.239,-0.748 l 0.002,-0.001 c 0.28,-0.169 0.475,-0.339 0.604,-0.42 0.13,-0.092 0.179,-0.127 0.22,-0.164 h 0.002 V 7.291 a 2.314,2.314 0 0 1 1.032,-0.746 l 0.016,-0.005 a 2.21,2.21 0 0 1 0.581,-0.081 h 10e-4 z m -1.712,-2.132 h 0.045 a 0.875,0.875 0 0 1 0.501,0.17 l -0.002,-0.002 c 0.179,0.159 0.325,0.352 0.425,0.57 l 0.004,0.011 c 0.113,0.245 0.183,0.53 0.191,0.83 v 0.008 a 1.804,1.804 0 0 1 -0.003,0.34 l 10e-4,-0.008 v 0.1 c -0.037,0.009 -0.07,0.022 -0.104,0.03 a 3.4,3.4 0 0 0 -0.505,0.258 l 0.014,-0.008 a 1.293,1.293 0 0 0 0.003,-0.34 l 10e-4,0.006 V 6.275 a 1.668,1.668 0 0 0 -0.107,-0.428 l 0.004,0.011 a 0.77,0.77 0 0 0 -0.207,-0.333 0.31,0.31 0 0 0 -0.209,-0.081 l -0.021,0.001 h 10e-4 -0.026 a 0.293,0.293 0 0 0 -0.232,0.163 l -10e-4,0.002 a 0.694,0.694 0 0 0 -0.15,0.334 v 0.004 a 1.128,1.128 0 0 0 -0.028,0.418 V 6.361 6.38 c 0.016,0.154 0.052,0.296 0.104,0.428 l -0.004,-0.011 a 0.792,0.792 0 0 0 0.207,0.335 0.16,0.16 0 0 0 0.042,0.03 h 0.001 a 1.488,1.488 0 0 0 -0.221,0.171 l 10e-4,-0.001 c -0.045,0.04 -0.1,0.07 -0.161,0.084 l -0.003,10e-4 a 3.24,3.24 0 0 1 -0.335,-0.486 l -0.008,-0.016 a 2.18,2.18 0 0 1 -0.194,-0.83 V 6.081 a 2.216,2.216 0 0 1 0.104,-0.851 l -0.004,0.016 c 0.074,-0.258 0.195,-0.481 0.356,-0.671 l -0.002,0.003 a 0.703,0.703 0 0 1 0.522,-0.25 h 10e-4 z m 3.702,-0.074 h 0.02 c 0.275,0 0.527,0.093 0.729,0.249 l -0.003,-0.002 c 0.229,0.177 0.413,0.4 0.542,0.655 l 0.005,0.011 c 0.121,0.266 0.196,0.575 0.207,0.901 v 0.004 c 0,-0.025 0.007,-0.05 0.007,-0.075 v 0.131 l -0.005,-0.026 -0.005,-0.03 c -0.003,0.32 -0.071,0.622 -0.193,0.897 l 0.006,-0.014 a 1.201,1.201 0 0 1 -0.266,0.419 0.774,0.774 0 0 0 -0.104,-0.05 l -0.006,-0.002 a 1.422,1.422 0 0 1 -0.36,-0.169 l 0.005,0.003 a 1.61,1.61 0 0 0 -0.264,-0.081 l -0.011,-0.002 c 0.081,-0.076 0.156,-0.157 0.225,-0.243 l 0.004,-0.005 c 0.063,-0.148 0.102,-0.319 0.11,-0.499 V 6.299 6.274 c 0,-0.17 -0.028,-0.333 -0.08,-0.485 l 0.003,0.011 a 1.849,1.849 0 0 0 -0.232,-0.421 l 0.004,0.005 a 0.57,0.57 0 0 0 -0.331,-0.165 h -0.027 a 0.399,0.399 0 0 0 -0.322,0.164 l -10e-4,0.001 a 0.993,0.993 0 0 0 -0.254,0.41 l -0.002,0.007 a 1.435,1.435 0 0 0 -0.112,0.496 v 0.027 c 0.002,0.12 0.011,0.236 0.027,0.349 l -0.002,-0.015 c -0.241,-0.084 -0.547,-0.169 -0.759,-0.252 a 1.814,1.814 0 0 1 -0.022,-0.247 V 6.131 l -10e-4,-0.066 a 2.2,2.2 0 0 1 0.194,-0.908 l -0.006,0.014 c 0.106,-0.279 0.293,-0.508 0.532,-0.663 l 0.005,-0.003 a 1.22,1.22 0 0 1 0.742,-0.25 z M 12.979022,0 c -0.194,0 -0.394,0.01 -0.6,0.026 -5.281,0.416 -3.88,6.007 -3.961,7.87 a 6.716,6.716 0 0 1 -1.325,3.792 l 0.013,-0.018 a 18.584,18.584 0 0 0 -3.351,5.523 l -0.043,0.127 a 6.585,6.585 0 0 0 -0.408,2.302 c 0,0.285 0.018,0.566 0.052,0.841 l -0.003,-0.033 a 0.531,0.531 0 0 0 -0.136,0.166 l -10e-4,0.003 c -0.325,0.335 -0.562,0.75 -0.829,1.048 a 3,3 0 0 1 -0.975,0.494 l -0.021,0.005 a 1.854,1.854 0 0 0 -1.07500004,0.841 l -0.005,0.009 a 1.652,1.652 0 0 0 -0.165,0.725 v 0.029 -0.001 c 0.002,0.238 0.026,0.469 0.073,0.693 l -0.004,-0.023 a 3.058,3.058 0 0 1 0.047,1.23 l 0.002,-0.018 A 2.3,2.3 0 0 0 2.1956316e-5,26.711 c 0,0.278 0.04800000368,0.544 0.137000003684,0.791 l -0.005,-0.016 c 0.273,0.388 0.686,0.662 1.16400004,0.749 l 0.011,0.002 c 1.274,0.107 2.451,0.373 3.561,0.78 l -0.094,-0.03 c 0.698,0.415 1.539,0.66 2.436,0.66 0.294,0 0.582,-0.026 0.862,-0.077 l -0.029,0.004 a 2.226,2.226 0 0 0 1.504,-1.169 l 0.006,-0.013 c 0.734,-0.004 1.537,-0.336 2.824,-0.417 0.873,-0.072 1.967,0.334 3.22,0.25 a 2.1,2.1 0 0 0 0.148,0.429 l -0.006,-0.013 0.004,0.004 a 2.351,2.351 0 0 0 2.364,1.338 l -0.01,0.001 a 4.382,4.382 0 0 0 2.813,-1.623 l 0.007,-0.009 a 10.149,10.149 0 0 1 2.905,-1.853 l 0.067,-0.025 c 0.432,-0.191 0.742,-0.585 0.81,-1.059 l 0.001,-0.007 a 2.51,2.51 0 0 0 -0.888,-1.716 l -0.004,-0.003 v -0.121 l -0.004,-0.004 a 2.8,2.8 0 0 1 -0.421,-1.142 l -0.002,-0.015 a 2.168,2.168 0 0 0 -0.615,-1.307 h -0.004 c -0.074,-0.067 -0.154,-0.084 -0.235,-0.169 a 0.442,0.442 0 0 0 -0.237,-0.08 h -0.001 a 6.601,6.601 0 0 0 0.308,-2.013 c 0,-0.94 -0.193,-1.835 -0.541,-2.647 l 0.017,0.044 a 15.73,15.73 0 0 0 -2.732,-4.369 l 0.014,0.017 a 6.519,6.519 0 0 1 -1.948,-4.187 l -0.001,-0.021 c 0.033,-2.689 0.295,-7.664 -4.429,-7.671 z"
     id="path1" />
</svg>
