<?xml version="1.0" encoding="UTF-8" standalone="no"?>
<svg
   width="601.92078"
   height="755.99799"
   version="1.1"
   id="svg4"
   sodipodi:docname="litespeed-icon.svg"
   inkscape:version="1.4 (e7c3feb1, 2024-10-09)"
   xmlns:inkscape="http://www.inkscape.org/namespaces/inkscape"
   xmlns:sodipodi="http://sodipodi.sourceforge.net/DTD/sodipodi-0.dtd"
   xmlns="http://www.w3.org/2000/svg"
   xmlns:svg="http://www.w3.org/2000/svg">
  <defs
     id="defs4" />
  <sodipodi:namedview
     id="namedview4"
     pagecolor="#ffffff"
     bordercolor="#000000"
     borderopacity="0.25"
     inkscape:showpageshadow="2"
     inkscape:pageopacity="0.0"
     inkscape:pagecheckerboard="0"
     inkscape:deskcolor="#d1d1d1"
     inkscape:zoom="0.0325"
     inkscape:cx="307.69231"
     inkscape:cy="353.84615"
     inkscape:window-width="1248"
     inkscape:window-height="250"
     inkscape:window-x="0"
     inkscape:window-y="25"
     inkscape:window-maximized="0"
     inkscape:current-layer="svg4" />
  <path
     fill="#818181"
     d="m 595.45301,367.328 -170.867,-170.89 a 3.805,3.805 0 0 0 -2.68,-1.109 c -0.07,0 -0.145,0.004 -0.223,0.008 a 3.793,3.793 0 0 0 -2.746,1.434 l -72.828,92.41 a 3.785,3.785 0 0 0 0.297,5.016 l 78.461,78.461 a 14.793,14.793 0 0 1 4.355,10.578 c -0.012,3.961 -1.551,7.664 -4.34,10.422 l -22.676,22.672 a 3.787,3.787 0 0 0 -0.473,4.777 c 5.652,8.457 14.906,22.383 15.77,23.926 2.84,5.684 3.789,20.195 -4.59,26.57 l -178.507,137.1 a 3.797,3.797 0 0 0 -1.477,3 c 0,15.211 -0.004,35.758 -0.008,56.445 -0.004,20.875 -0.012,41.891 -0.012,57.695 a 22281.41,22281.41 0 0 0 0.012,24.48 c 0.004,2.637 0.008,4.234 2.098,5.273 a 3.778,3.778 0 0 0 1.691,0.402 c 1.563,0 2.188,-0.617 3.695,-2.121 l 2.984,-2.98 c 2.613,-2.605 6.441,-6.434 11.313,-11.297 9.742,-9.73 23.648,-23.633 40.344,-40.313 33.383,-33.363 77.887,-77.852 122.391,-122.336 89,-88.961 177.996,-177.938 177.996,-177.938 8.649,-8.755 8.645,-22.966 0.02,-31.685 z"
     id="path1" />
  <path
     fill="#3c3c3a"
     d="m 368.39101,1.695 -0.055,-0.078 c -0.039,-0.047 -0.07,-0.094 -0.109,-0.137 l -0.098,-0.117 A 3.81,3.81 0 0 0 365.39501,0 h -0.176 c -0.996,0 -1.961,0.398 -2.676,1.109 L 6.5740051,357.121 c -4.238,4.191 -6.57799998,9.824 -6.5739999802696,15.84 C 0.00400512,378.969 2.3440051,384.578 6.5900051,388.762 L 177.41001,559.602 a 3.772,3.772 0 0 0 2.672,1.109 c 0.074,0 0.145,0 0.223,-0.008 a 3.796,3.796 0 0 0 2.746,-1.434 l 72.871,-92.41 a 3.78,3.78 0 0 0 -0.297,-5.012 l -78.539,-78.465 c -2.781,-2.758 -4.309,-6.457 -4.316,-10.422 -0.004,-3.988 1.527,-7.715 4.313,-10.492 l 22.723,-22.758 a 3.79,3.79 0 0 0 0.43,-4.836 l -15.512,-22.289 c -6.266,-8.883 -4.32,-21.492 4.324,-28.121 l 178.573,-137.011 a 3.794,3.794 0 0 0 1.48,-3 l 0.055,-140.477 c 0,-0.824 -0.265,-1.624 -0.765,-2.281 z"
     id="path2" />
  <path
     fill="#bfbfbf"
     d="m 399.83601,442.734 -197.734,-128.418 87.336,125.559 c 1.883,2.871 1.688,7.781 -0.383,10.555 l -156.434,198.539 c -2.77,3.594 -5.078,7.488 -3.125,11.512 1.059,2.109 3.617,3.789 6.086,3.996 3.09,-0.031 5.453,-1.383 8.707,-3.859 l 251.414,-193 c 7.688,-5.876 7.481,-20.106 4.133,-24.884 z"
     id="path3" />
  <path
     fill="#d3d3d3"
     d="m 472.42601,95.578 c -1.184,-2.418 -3.816,-4.055 -6.543,-4.055 -2.43,0 -4.734,1.051 -8.242,3.734 l -251.52,193.149 c -7.973,6.098 -9.773,17.719 -4.02,25.91 l 197.734,128.418 c -2.863,-4.195 -86.512,-125.453 -87.355,-126.68 -1.895,-2.68 -1.738,-7.898 0.324,-10.52 l 156.438,-198.621 0.109,-0.125 c 2.54,-3.257 5.087,-7.077 3.075,-11.21 z"
     id="path4" />
</svg>
