<?xml version="1.0" encoding="UTF-8" standalone="no"?>
<svg
   width="693.16669"
   height="800"
   viewBox="-1.5 0 20.795001 24"
   version="1.1"
   id="svg1"
   sodipodi:docname="nginx-icon.svg"
   inkscape:version="1.4 (e7c3feb1, 2024-10-09)"
   xmlns:inkscape="http://www.inkscape.org/namespaces/inkscape"
   xmlns:sodipodi="http://sodipodi.sourceforge.net/DTD/sodipodi-0.dtd"
   xmlns="http://www.w3.org/2000/svg"
   xmlns:svg="http://www.w3.org/2000/svg">
  <defs
     id="defs1" />
  <sodipodi:namedview
     id="namedview1"
     pagecolor="#ffffff"
     bordercolor="#000000"
     borderopacity="0.25"
     inkscape:showpageshadow="2"
     inkscape:pageopacity="0.0"
     inkscape:pagecheckerboard="0"
     inkscape:deskcolor="#d1d1d1"
     inkscape:zoom="0.0325"
     inkscape:cx="338.46154"
     inkscape:cy="384.61538"
     inkscape:window-width="1248"
     inkscape:window-height="250"
     inkscape:window-x="0"
     inkscape:window-y="25"
     inkscape:window-maximized="0"
     inkscape:current-layer="svg1" />
  <path
     d="M 8.895,0 -1.5,6 v 12 l 10.395,6 10.4,-6 V 6 Z m 6,16.59 a 1.407,1.407 0 0 1 -1.535,1.29 h 0.006 -0.026 a 2.342,2.342 0 0 1 -1.771,-0.807 l -0.002,-0.003 -6,-7.141 v 6.674 c 0,0.703 -0.568,1.273 -1.271,1.276 H 4.216 A 1.3,1.3 0 0 1 2.926,16.59 V 7.41 A 1.387,1.387 0 0 1 4.431,6.12 H 4.426 4.465 c 0.712,0 1.352,0.312 1.789,0.808 l 0.002,0.003 5.97,7.141 V 7.411 a 1.3,1.3 0 0 1 1.289,-1.29 h 0.076 a 1.3,1.3 0 0 1 1.29,1.289 v 9.181 z"
     id="path1" />
</svg>
