<?xml version="1.0" encoding="UTF-8" standalone="no"?>
<svg
   version="1"
   width="500"
   height="800"
   viewBox="0 0 40 64"
   id="svg3"
   sodipodi:docname="server-icon.svg"
   inkscape:version="1.4 (e7c3feb1, 2024-10-09)"
   xmlns:inkscape="http://www.inkscape.org/namespaces/inkscape"
   xmlns:sodipodi="http://sodipodi.sourceforge.net/DTD/sodipodi-0.dtd"
   xmlns="http://www.w3.org/2000/svg"
   xmlns:svg="http://www.w3.org/2000/svg">
  <defs
     id="defs3" />
  <sodipodi:namedview
     id="namedview3"
     pagecolor="#ffffff"
     bordercolor="#000000"
     borderopacity="0.25"
     inkscape:showpageshadow="2"
     inkscape:pageopacity="0.0"
     inkscape:pagecheckerboard="0"
     inkscape:deskcolor="#d1d1d1"
     inkscape:zoom="0.0325"
     inkscape:cx="246.15385"
     inkscape:cy="384.61538"
     inkscape:window-width="1248"
     inkscape:window-height="250"
     inkscape:window-x="50"
     inkscape:window-y="138"
     inkscape:window-maximized="0"
     inkscape:current-layer="svg3" />
  <circle
     fill="#231f20"
     cx="28"
     cy="55"
     r="1"
     id="circle1" />
  <circle
     fill="#231f20"
     cx="12"
     cy="55"
     r="1"
     id="circle2" />
  <circle
     fill="#231f20"
     cx="20"
     cy="55"
     r="1"
     id="circle3" />
  <path
     fill="#231f20"
     d="m 0,60 c 0,2.211 1.789,4 4,4 h 32 c 2.211,0 4,-1.789 4,-4 V 38 H 0 Z m 28,-8 a 3,3 0 1 1 0,6 3,3 0 0 1 0,-6 z m -8,0 a 3,3 0 1 1 0,6 3,3 0 0 1 0,-6 z m -8,0 a 3,3 0 1 1 0,6 3,3 0 0 1 0,-6 z M 0,24 H 40 V 14 H 0 Z m 9,-6 h 22 a 1,1 0 1 1 0,2 H 9 A 1,1 0 1 1 9,18 Z M 0,36 H 40 V 26 H 0 Z m 9,-6 h 22 a 1,1 0 1 1 0,2 H 9 A 1,1 0 1 1 9,30 Z M 36,0 H 4 C 1.789,0 0,1.789 0,4 v 8 H 40 V 4 C 40,1.789 38.211,0 36,0 Z M 31,8 H 9 A 1,1 0 1 1 9,6 h 22 a 1,1 0 1 1 0,2 z"
     id="path3" />
</svg>
