<?xml version="1.0" encoding="UTF-8" standalone="no"?>
<svg
   width="800"
   height="799.99847"
   viewBox="0 0 20 19.999962"
   version="1.1"
   id="svg1"
   sodipodi:docname="ubuntu-icon.svg"
   inkscape:version="1.4 (e7c3feb1, 2024-10-09)"
   xmlns:inkscape="http://www.inkscape.org/namespaces/inkscape"
   xmlns:sodipodi="http://sodipodi.sourceforge.net/DTD/sodipodi-0.dtd"
   xmlns="http://www.w3.org/2000/svg"
   xmlns:svg="http://www.w3.org/2000/svg">
  <defs
     id="defs1" />
  <sodipodi:namedview
     id="namedview1"
     pagecolor="#ffffff"
     bordercolor="#000000"
     borderopacity="0.25"
     inkscape:showpageshadow="2"
     inkscape:pageopacity="0.0"
     inkscape:pagecheckerboard="0"
     inkscape:deskcolor="#d1d1d1"
     inkscape:zoom="0.0325"
     inkscape:cx="400"
     inkscape:cy="384.61538"
     inkscape:window-width="1248"
     inkscape:window-height="250"
     inkscape:window-x="0"
     inkscape:window-y="25"
     inkscape:window-maximized="0"
     inkscape:current-layer="svg1" />
  <path
     d="m 15.612,3.447632 c 0.918,0.51 2.09,0.208 2.62,-0.676 0.529,-0.884 0.215,-2.01399995 -0.702,-2.52399995 -0.917,-0.51 -2.09,-0.207 -2.62,0.677 C 14.381,1.807632 14.696,2.937632 15.612,3.447632 m -3.925,11.95 a 5.76,5.76 0 0 1 -2.36,-0.501 l -1.333,2.3 a 8.63,8.63 0 0 0 5.92,0.539 2.588,2.588 0 0 1 1.31,-1.831 2.779,2.779 0 0 1 2.3,-0.18 c 1.419,-1.344 2.341,-3.172 2.476,-5.207 l -2.733,-0.04 c -0.252,2.759 -2.653,4.92 -5.58,4.92 m 0,-10.796 c 2.927,0 5.328,2.162 5.58,4.92 l 2.733,-0.04 c -0.135,-2.035 -1.057,-3.863 -2.476,-5.207 a 2.78,2.78 0 0 1 -2.3,-0.18 2.594,2.594 0 0 1 -1.312,-1.832 8.667,8.667 0 0 0 -2.226,-0.291 c -1.325,0 -2.578,0.3 -3.692,0.83 l 1.334,2.302 a 5.744,5.744 0 0 1 2.36,-0.502 m -5.605,5.398 c 0,-1.826 0.943,-3.44 2.383,-4.417 l -1.402,-2.263 c -1.678,1.08 -2.926,2.733 -3.444,4.667 0.606,0.476 0.993,1.2 0.993,2.013 0,0.812 -0.387,1.537 -0.993,2.013 0.519,1.935 1.767,3.587 3.445,4.668 l 1.403,-2.264 c -1.44,-0.977 -2.383,-2.59 -2.383,-4.417 m 9.53,6.552 c -0.918,0.51 -1.233,1.64 -0.703,2.524 0.529,0.884 1.702,1.187 2.62,0.676 0.916,-0.51 1.23,-1.64 0.7,-2.524 -0.529,-0.883 -1.701,-1.186 -2.618,-0.676 m -13.694,-8.4 c -1.061,0 -1.92,0.827 -1.92,1.848 0,1.02 0.86,1.848 1.919,1.848 1.06,0 1.918,-0.827 1.918,-1.848 0,-1.021 -0.859,-1.848 -1.918,-1.848"
     fill-rule="evenodd"
     id="path1" />
</svg>
