<?xml version="1.0" encoding="UTF-8" standalone="no"?>
<svg
   height="703.69434"
   viewBox="0 0 511 450.36437"
   width="798.4375"
   version="1.1"
   id="svg1"
   sodipodi:docname="windows-icon.svg"
   inkscape:version="1.4 (e7c3feb1, 2024-10-09)"
   xmlns:inkscape="http://www.inkscape.org/namespaces/inkscape"
   xmlns:sodipodi="http://sodipodi.sourceforge.net/DTD/sodipodi-0.dtd"
   xmlns="http://www.w3.org/2000/svg"
   xmlns:svg="http://www.w3.org/2000/svg">
  <defs
     id="defs1" />
  <sodipodi:namedview
     id="namedview1"
     pagecolor="#ffffff"
     bordercolor="#000000"
     borderopacity="0.25"
     inkscape:showpageshadow="2"
     inkscape:pageopacity="0.0"
     inkscape:pagecheckerboard="0"
     inkscape:deskcolor="#d1d1d1"
     inkscape:zoom="0.0325"
     inkscape:cx="400"
     inkscape:cy="323.07692"
     inkscape:window-width="1248"
     inkscape:window-height="250"
     inkscape:window-x="0"
     inkscape:window-y="25"
     inkscape:window-maximized="0"
     inkscape:current-layer="svg1" />
  <path
     d="m 106.169,21.619554 c 0,0 102.123,-55.525 189.491,11.392 L 246.764,201.00655 c 0,0 -54.756,-37.67 -95.361,-33.602 -40.605,4.079 -94.13,23.508 -94.13,23.508 z M 0,389.74755 c 22.54,-11.653 56.372,-17.559 95.35,-20.823 39.011,-3.255 93.91,32.468 93.91,32.468 l 49.401,-169.776 c -7.817,-5.618 -44.168,-30.094 -89.666,-33.348 -45.52,-3.255 -100.354,22.243 -100.354,22.243 z m 215.604,26.599 c 8.928,3.519 38.22,31.38 86.972,33.854 48.763,2.419 102.541,-22.749 102.541,-22.749 0,0 47.894,-167.6 48.861,-168.249 0.33,-0.176 -0.604,0.484 -0.968,0.649 -45.596,17.845 -68.872,20.506 -102.496,21.309 -34.141,0.824 -86.269,-33.095 -86.269,-33.095 z M 321.51,50.756554 272.515,217.77355 c 0,0 39.803,39 95.867,35.768 56.098,-3.267 86.532,-20.945 93.976,-23.442 L 511,61.597554 c 0,0 -64.606,26.982 -106.851,22.09 -42.265,-4.893 -68.555,-22.849 -82.639,-32.931 z"
     id="path1" />
</svg>
