<?xml version="1.0" encoding="UTF-8" standalone="no"?>
<svg
   width="800.00061"
   height="800.03101"
   viewBox="0 0 20.000015 20.000775"
   version="1.1"
   id="svg1"
   sodipodi:docname="wordpress-icon.svg"
   inkscape:version="1.4 (e7c3feb1, 2024-10-09)"
   xmlns:inkscape="http://www.inkscape.org/namespaces/inkscape"
   xmlns:sodipodi="http://sodipodi.sourceforge.net/DTD/sodipodi-0.dtd"
   xmlns="http://www.w3.org/2000/svg"
   xmlns:svg="http://www.w3.org/2000/svg">
  <defs
     id="defs1" />
  <sodipodi:namedview
     id="namedview1"
     pagecolor="#ffffff"
     bordercolor="#000000"
     borderopacity="0.25"
     inkscape:showpageshadow="2"
     inkscape:pageopacity="0.0"
     inkscape:pagecheckerboard="0"
     inkscape:deskcolor="#d1d1d1"
     inkscape:zoom="0.0325"
     inkscape:cx="400"
     inkscape:cy="384.61538"
     inkscape:window-width="1248"
     inkscape:window-height="250"
     inkscape:window-x="52"
     inkscape:window-y="209"
     inkscape:window-maximized="0"
     inkscape:current-layer="svg1" />
  <path
     d="m 18.775003,5.2020103 c 0.043,0.319 0.067,0.66 0.067,1.028 0,1.758 -0.163,1.857 -3.815,12.4139997 a 9.997,9.997 0 0 0 4.973,-8.644 9.947,9.947 0 0 0 -1.225,-4.7979997 z m -8.599,5.6729997 -3.001,8.718 c 2.025,0.596 4.171,0.535 6.146,-0.159 a 0.897,0.897 0 0 1 -0.071,-0.138 z m 6.575,-1.3799997 c 0,-1.236 -0.444,-2.092 -0.825,-2.758 -0.506,-0.824 -0.982,-1.521 -0.982,-2.345 0,-0.919 0.698,-1.775 1.68,-1.775 0.044,0 0.086,0.006 0.129,0.008 A 9.962,9.962 0 0 0 10.000003,1.0268998e-5 9.988,9.988 0 0 0 1.645003,4.5070103 c 0.637,0.02 1.492,0.028 3.309,-0.114 0.539,-0.032 0.602,0.76 0.064,0.823 0,0 -0.542,0.064 -1.145,0.096 l 3.642,10.8319997 2.188,-6.5639997 -1.558,-4.269 c -0.538,-0.031 -1.048,-0.095 -1.048,-0.095 -0.539,-0.032 -0.476,-0.856 0.063,-0.824 2.067,0.159 3.125,0.171 5.299,0 0.539,-0.032 0.603,0.76 0.064,0.824 0,0 -0.543,0.064 -1.145,0.095 l 3.614,10.7499997 c 1.427,-4.768 1.759,-5.566 1.759,-6.5659997 z M 2.9503975e-6,10.00001 c 0,3.958 2.3000000496025,7.379 5.6360000496025,9 L 0.86600295,5.9300103 A 9.961,9.961 0 0 0 2.9503975e-6,10.00001 Z"
     fill-rule="evenodd"
     id="path1" />
</svg>
